Urbanist-Thin Italic.ufo
<glyph name="exclam" format="2">
	<advance width="290"/>
	<unicode hex="0021"/>
	<outline>
		<contour>
			<point x="85" y="420" type="line"/>
			<point x="145" y="420" type="line"/>
			<point x="282" y="1400" type="line"/>
			<point x="222" y="1400" type="line"/>
		</contour>
		<contour>
			<point x="55" y="-26" type="curve" smooth="yes"/>
			<point x="78" y="-26"/>
			<point x="99" y="-8"/>
			<point x="102" y="17" type="curve" smooth="yes"/>
			<point x="106" y="42"/>
			<point x="87" y="64"/>
			<point x="61" y="64" type="curve" smooth="yes"/>
			<point x="37" y="64"/>
			<point x="16" y="46"/>
			<point x="13" y="23" type="curve" smooth="yes"/>
			<point x="9" y="-4"/>
			<point x="28" y="-26"/>
		</contour>
	</outline>
</glyph>
<glyph name="numbersign" format="2">
	<advance width="1464"/>
	<unicode hex="0023"/>
	<outline>
		<contour>
			<point x="1434" y="968" type="line"/>
			<point x="1458" y="1026" type="line"/>
			<point x="1230" y="1026" type="line"/>
			<point x="1383" y="1400" type="line"/>
			<point x="1322" y="1400" type="line"/>
			<point x="1170" y="1026" type="line"/>
			<point x="618" y="1026" type="line"/>
			<point x="771" y="1400" type="line"/>
			<point x="710" y="1400" type="line"/>
			<point x="558" y="1026" type="line"/>
			<point x="328" y="1026" type="line"/>
			<point x="303" y="968" type="line"/>
			<point x="533" y="968" type="line"/>
			<point x="314" y="434" type="line"/>
			<point x="86" y="434" type="line"/>
			<point x="62" y="376" type="line"/>
			<point x="292" y="376" type="line"/>
			<point x="137" y="0" type="line"/>
			<point x="198" y="0" type="line"/>
			<point x="353" y="376" type="line"/>
			<point x="904" y="376" type="line"/>
			<point x="749" y="0" type="line"/>
			<point x="810" y="0" type="line"/>
			<point x="965" y="376" type="line"/>
			<point x="1193" y="376" type="line"/>
			<point x="1217" y="434" type="line"/>
			<point x="987" y="434" type="line"/>
			<point x="1206" y="968" type="line"/>
		</contour>
		<contour>
			<point x="926" y="434" type="line"/>
			<point x="375" y="434" type="line"/>
			<point x="594" y="968" type="line"/>
			<point x="1145" y="968" type="line"/>
		</contour>
	</outline>
</glyph>
<glyph name="parenright" format="2">
	<advance width="554"/>
	<unicode hex="0029"/>
	<outline>
		<contour>
			<point x="13" y="-111" type="curve"/>
			<point x="75" y="-113" type="line"/>
			<point x="298" y="65"/>
			<point x="415" y="362"/>
			<point x="454" y="641" type="curve" smooth="yes"/>
			<point x="494" y="930"/>
			<point x="457" y="1225"/>
			<point x="285" y="1399" type="curve"/>
			<point x="228" y="1401" type="line"/>
			<point x="390" y="1189"/>
			<point x="426" y="956"/>
			<point x="395" y="647" type="curve"/>
			<point x="338" y="330"/>
			<point x="227" y="87"/>
		</contour>
	</outline>
</glyph>
<glyph name="hyphen" format="2">
	<advance width="880"/>
	<unicode hex="002D"/>
	<outline>
		<contour>
			<point x="138" y="630" type="line"/>
			<point x="130" y="570" type="line"/>
			<point x="770" y="570" type="line"/>
			<point x="778" y="630" type="line"/>
		</contour>
	</outline>
</glyph>
<glyph name="slash" format="2">
	<advance width="624"/>
	<unicode hex="002F"/>
	<outline>
		<contour>
			<point x="671" y="1400" type="line"/>
			<point x="610" y="1400" type="line"/>
			<point x="-6" y="-112" type="line"/>
			<point x="54" y="-112" type="line"/>
		</contour>
	</outline>
</glyph>
<glyph name="zero" format="2">
	<advance width="1178"/>
	<unicode hex="0030"/>
	<outline>
		<contour>
			<point x="519" y="-26" type="curve" smooth="yes"/>
			<point x="858" y="-26"/>
			<point x="1090" y="298"/>
			<point x="1146" y="697" type="curve" smooth="yes"/>
			<point x="1202" y="1100"/>
			<point x="1058" y="1426"/>
			<point x="717" y="1426" type="curve" smooth="yes"/>
			<point x="376" y="1426"/>
			<point x="145" y="1104"/>
			<point x="89" y="703" type="curve" smooth="yes"/>
			<point x="32" y="302"/>
			<point x="176" y="-26"/>
		</contour>
		<contour>
			<point x="521" y="34" type="curve" smooth="yes"/>
			<point x="219" y="34"/>
			<point x="96" y="330"/>
			<point x="148" y="697" type="curve" smooth="yes"/>
			<point x="198" y="1056"/>
			<point x="399" y="1366"/>
			<point x="715" y="1366" type="curve" smooth="yes"/>
			<point x="1011" y="1366"/>
			<point x="1140" y="1084"/>
			<point x="1087" y="703" type="curve" smooth="yes"/>
			<point x="1035" y="338"/>
			<point x="827" y="34"/>
		</contour>
	</outline>
</glyph>
<glyph name="one" format="2">
	<advance width="430"/>
	<unicode hex="0031"/>
	<outline>
		<contour>
			<point x="140" y="0" type="line"/>
			<point x="200" y="0" type="line"/>
			<point x="396" y="1400" type="line"/>
			<point x="226" y="1400" type="line"/>
			<point x="198" y="1340" type="line"/>
			<point x="328" y="1340" type="line"/>
		</contour>
	</outline>
</glyph>
<glyph name="two" format="2">
	<advance width="1048"/>
	<unicode hex="0032"/>
	<outline>
		<contour>
			<point x="10" y="0" type="line"/>
			<point x="858" y="0" type="line"/>
			<point x="866" y="60" type="line"/>
			<point x="117" y="59" type="line"/>
			<point x="429" y="313"/>
			<point x="935" y="778"/>
			<point x="969" y="1023" type="curve" smooth="yes"/>
			<point x="1001" y="1244"/>
			<point x="846" y="1426"/>
			<point x="627" y="1426" type="curve" smooth="yes"/>
			<point x="408" y="1426"/>
			<point x="207" y="1248"/>
			<point x="176" y="1028" type="curve"/>
			<point x="236" y="1024" type="line"/>
			<point x="262" y="1210"/>
			<point x="437" y="1366"/>
			<point x="625" y="1366" type="curve" smooth="yes"/>
			<point x="809" y="1366"/>
			<point x="936" y="1214"/>
			<point x="910" y="1029" type="curve" smooth="yes"/>
			<point x="876" y="784"/>
			<point x="381" y="373"/>
			<point x="16" y="53" type="curve"/>
		</contour>
	</outline>
</glyph>
<glyph name="three" format="2">
	<advance width="952"/>
	<unicode hex="0033"/>
	<outline>
		<contour>
			<point x="405" y="-26" type="curve" smooth="yes"/>
			<point x="622" y="-26"/>
			<point x="843" y="150"/>
			<point x="873" y="367" type="curve" smooth="yes"/>
			<point x="898" y="544"/>
			<point x="819" y="677"/>
			<point x="647" y="737" type="curve"/>
			<point x="795" y="783"/>
			<point x="905" y="904"/>
			<point x="927" y="1063" type="curve" smooth="yes"/>
			<point x="955" y="1262"/>
			<point x="794" y="1426"/>
			<point x="595" y="1426" type="curve" smooth="yes"/>
			<point x="396" y="1426"/>
			<point x="194" y="1266"/>
			<point x="166" y="1068" type="curve"/>
			<point x="225" y="1064" type="line"/>
			<point x="248" y="1228"/>
			<point x="425" y="1366"/>
			<point x="593" y="1366" type="curve" smooth="yes"/>
			<point x="755" y="1366"/>
			<point x="891" y="1232"/>
			<point x="868" y="1069" type="curve" smooth="yes"/>
			<point x="840" y="872"/>
			<point x="672" y="766"/>
			<point x="448" y="766" type="curve"/>
			<point x="443" y="706" type="line"/>
			<point x="683" y="706"/>
			<point x="845" y="596"/>
			<point x="814" y="373" type="curve" smooth="yes"/>
			<point x="788" y="186"/>
			<point x="593" y="34"/>
			<point x="407" y="34" type="curve" smooth="yes"/>
			<point x="183" y="34"/>
			<point x="75" y="182"/>
			<point x="101" y="368" type="curve"/>
			<point x="42" y="372" type="line"/>
			<point x="11" y="154"/>
			<point x="146" y="-26"/>
		</contour>
	</outline>
</glyph>
<glyph name="four" format="2">
	<advance width="1040"/>
	<unicode hex="0034"/>
	<outline>
		<contour>
			<point x="620" y="0" type="line"/>
			<point x="680" y="0" type="line"/>
			<point x="741" y="434" type="line"/>
			<point x="911" y="434" type="line"/>
			<point x="919" y="494" type="line"/>
			<point x="749" y="494" type="line"/>
			<point x="876" y="1400" type="line"/>
			<point x="796" y="1400" type="line"/>
			<point x="79" y="498" type="line"/>
			<point x="71" y="434" type="line"/>
			<point x="681" y="434" type="line"/>
		</contour>
		<contour>
			<point x="156" y="498" type="line"/>
			<point x="799" y="1302" type="line"/>
			<point x="689" y="494" type="line"/>
		</contour>
	</outline>
</glyph>
<glyph name="five" format="2">
	<advance width="1074"/>
	<unicode hex="0035"/>
	<outline>
		<contour>
			<point x="441" y="-26" type="curve" smooth="yes"/>
			<point x="682" y="-26"/>
			<point x="908" y="170"/>
			<point x="942" y="413" type="curve" smooth="yes"/>
			<point x="979" y="680"/>
			<point x="807" y="858"/>
			<point x="521" y="858" type="curve" smooth="yes"/>
			<point x="311" y="858" type="line"/>
			<point x="472" y="1340" type="line"/>
			<point x="1054" y="1340" type="line"/>
			<point x="1062" y="1400" type="line"/>
			<point x="432" y="1400" type="line"/>
			<point x="228" y="798" type="line"/>
			<point x="556" y="798" type="line" smooth="yes"/>
			<point x="766" y="798"/>
			<point x="912" y="628"/>
			<point x="883" y="419" type="curve" smooth="yes"/>
			<point x="853" y="208"/>
			<point x="655" y="34"/>
			<point x="443" y="34" type="curve" smooth="yes"/>
			<point x="233" y="34"/>
			<point x="88" y="204"/>
			<point x="118" y="414" type="curve"/>
			<point x="58" y="418" type="line"/>
			<point x="24" y="174"/>
			<point x="194" y="-26"/>
		</contour>
	</outline>
</glyph>
<glyph name="six" format="2">
	<advance width="1060"/>
	<unicode hex="0036"/>
	<outline>
		<contour>
			<point x="453" y="-26" type="curve" smooth="yes"/>
			<point x="714" y="-26"/>
			<point x="956" y="186"/>
			<point x="993" y="447" type="curve" smooth="yes"/>
			<point x="1045" y="818"/>
			<point x="669" y="1045"/>
			<point x="331" y="859" type="curve"/>
			<point x="721" y="1400" type="line"/>
			<point x="650" y="1400" type="line"/>
			<point x="152" y="705" type="line"/>
			<point x="91" y="611"/>
			<point x="59" y="562"/>
			<point x="43" y="453" type="curve" smooth="yes"/>
			<point x="6" y="190"/>
			<point x="192" y="-26"/>
		</contour>
		<contour>
			<point x="455" y="34" type="curve" smooth="yes"/>
			<point x="235" y="34"/>
			<point x="70" y="214"/>
			<point x="103" y="449" type="curve" smooth="yes"/>
			<point x="134" y="670"/>
			<point x="343" y="864"/>
			<point x="581" y="864" type="curve" smooth="yes"/>
			<point x="807" y="864"/>
			<point x="966" y="682"/>
			<point x="934" y="455" type="curve" smooth="yes"/>
			<point x="903" y="234"/>
			<point x="699" y="34"/>
		</contour>
	</outline>
</glyph>
<glyph name="eight" format="2">
	<advance width="1024"/>
	<unicode hex="0038"/>
	<outline>
		<contour>
			<point x="441" y="-26" type="curve" smooth="yes"/>
			<point x="678" y="-26"/>
			<point x="895" y="150"/>
			<point x="925" y="367" type="curve" smooth="yes"/>
			<point x="949" y="534"/>
			<point x="855" y="677"/>
			<point x="707" y="737" type="curve"/>
			<point x="851" y="793"/>
			<point x="965" y="918"/>
			<point x="985" y="1063" type="curve" smooth="yes"/>
			<point x="1013" y="1262"/>
			<point x="856" y="1426"/>
			<point x="639" y="1426" type="curve" smooth="yes"/>
			<point x="424" y="1426"/>
			<point x="226" y="1266"/>
			<point x="198" y="1069" type="curve" smooth="yes"/>
			<point x="177" y="922"/>
			<point x="259" y="795"/>
			<point x="384" y="739" type="curve"/>
			<point x="218" y="679"/>
			<point x="85" y="538"/>
			<point x="62" y="373" type="curve" smooth="yes"/>
			<point x="31" y="154"/>
			<point x="202" y="-26"/>
		</contour>
		<contour>
			<point x="443" y="34" type="curve" smooth="yes"/>
			<point x="245" y="34"/>
			<point x="101" y="182"/>
			<point x="127" y="367" type="curve" smooth="yes"/>
			<point x="154" y="554"/>
			<point x="343" y="706"/>
			<point x="544" y="706" type="curve" smooth="yes"/>
			<point x="747" y="706"/>
			<point x="886" y="558"/>
			<point x="860" y="373" type="curve" smooth="yes"/>
			<point x="834" y="186"/>
			<point x="649" y="34"/>
		</contour>
		<contour>
			<point x="546" y="766" type="curve" smooth="yes"/>
			<point x="366" y="766"/>
			<point x="240" y="898"/>
			<point x="263" y="1063" type="curve" smooth="yes"/>
			<point x="287" y="1230"/>
			<point x="453" y="1366"/>
			<point x="637" y="1366" type="curve" smooth="yes"/>
			<point x="817" y="1366"/>
			<point x="943" y="1234"/>
			<point x="920" y="1069" type="curve" smooth="yes"/>
			<point x="896" y="902"/>
			<point x="730" y="766"/>
		</contour>
	</outline>
</glyph>
<glyph name="nine" format="2">
	<advance width="1020"/>
	<unicode hex="0039"/>
	<outline>
		<contour>
			<point x="329" y="0" type="line"/>
			<point x="398" y="0" type="line"/>
			<point x="922" y="733" type="line"/>
			<point x="980" y="823"/>
			<point x="1012" y="868"/>
			<point x="1026" y="971" type="curve" smooth="yes"/>
			<point x="1061" y="1220"/>
			<point x="884" y="1426"/>
			<point x="637" y="1426" type="curve" smooth="yes"/>
			<point x="390" y="1426"/>
			<point x="162" y="1224"/>
			<point x="127" y="977" type="curve" smooth="yes"/>
			<point x="78" y="626"/>
			<point x="433" y="411"/>
			<point x="754" y="587" type="curve"/>
		</contour>
		<contour>
			<point x="516" y="582" type="curve" smooth="yes"/>
			<point x="302" y="582"/>
			<point x="152" y="754"/>
			<point x="182" y="969" type="curve" smooth="yes"/>
			<point x="212" y="1180"/>
			<point x="404" y="1368"/>
			<point x="635" y="1368" type="curve" smooth="yes"/>
			<point x="844" y="1368"/>
			<point x="1000" y="1198"/>
			<point x="969" y="975" type="curve" smooth="yes"/>
			<point x="939" y="766"/>
			<point x="742" y="582"/>
		</contour>
	</outline>
</glyph>
<glyph name="colon" format="2">
	<advance width="290"/>
	<unicode hex="003A"/>
	<outline>
		<contour>
			<point x="185" y="910" type="curve" smooth="yes"/>
			<point x="209" y="910"/>
			<point x="230" y="928"/>
			<point x="234" y="953" type="curve" smooth="yes"/>
			<point x="237" y="978"/>
			<point x="219" y="1000"/>
			<point x="191" y="1000" type="curve" smooth="yes"/>
			<point x="169" y="1000"/>
			<point x="148" y="982"/>
			<point x="145" y="959" type="curve" smooth="yes"/>
			<point x="141" y="932"/>
			<point x="159" y="910"/>
		</contour>
		<contour>
			<point x="53" y="-26" type="curve" smooth="yes"/>
			<point x="78" y="-26"/>
			<point x="99" y="-8"/>
			<point x="102" y="17" type="curve" smooth="yes"/>
			<point x="106" y="42"/>
			<point x="87" y="64"/>
			<point x="59" y="64" type="curve" smooth="yes"/>
			<point x="37" y="64"/>
			<point x="16" y="46"/>
			<point x="13" y="23" type="curve" smooth="yes"/>
			<point x="9" y="-4"/>
			<point x="28" y="-26"/>
		</contour>
	</outline>
</glyph>
<glyph name="greater" format="2">
	<advance width="1160"/>
	<unicode hex="003E"/>
	<outline>
		<contour>
			<point x="48" y="268" type="line"/>
			<point x="1087" y="552" type="line"/>
			<point x="1100" y="646" type="line"/>
			<point x="141" y="932" type="line"/>
			<point x="132" y="868" type="line"/>
			<point x="1040" y="600" type="line"/>
			<point x="56" y="330" type="line"/>
		</contour>
	</outline>
</glyph>
<glyph name="C" format="2">
	<advance width="1398"/>
	<unicode hex="0043"/>
	<outline>
		<contour>
			<point x="677" y="-26" type="curve" smooth="yes"/>
			<point x="902" y="-26"/>
			<point x="1115" y="85"/>
			<point x="1265" y="261" type="curve"/>
			<point x="1215" y="291" type="line"/>
			<point x="1084" y="139"/>
			<point x="885" y="34"/>
			<point x="679" y="34" type="curve" smooth="yes"/>
			<point x="335" y="34"/>
			<point x="96" y="330"/>
			<point x="148" y="697" type="curve" smooth="yes"/>
			<point x="198" y="1056"/>
			<point x="519" y="1366"/>
			<point x="873" y="1366" type="curve" smooth="yes"/>
			<point x="1065" y="1366"/>
			<point x="1241" y="1267"/>
			<point x="1333" y="1109" type="curve"/>
			<point x="1387" y="1135" type="line"/>
			<point x="1285" y="1311"/>
			<point x="1102" y="1426"/>
			<point x="875" y="1426" type="curve" smooth="yes"/>
			<point x="496" y="1426"/>
			<point x="145" y="1102"/>
			<point x="89" y="703" type="curve" smooth="yes"/>
			<point x="32" y="300"/>
			<point x="296" y="-26"/>
		</contour>
	</outline>
</glyph>
<glyph name="D" format="2">
	<advance width="1342"/>
	<unicode hex="0044"/>
	<outline>
		<contour>
			<point x="50" y="0" type="line"/>
			<point x="513" y="0" type="line" smooth="yes"/>
			<point x="901" y="0"/>
			<point x="1256" y="312"/>
			<point x="1310" y="697" type="curve" smooth="yes"/>
			<point x="1364" y="1084"/>
			<point x="1095" y="1400"/>
			<point x="707" y="1400" type="curve" smooth="yes"/>
			<point x="246" y="1400" type="line"/>
		</contour>
		<contour>
			<point x="118" y="60" type="line"/>
			<point x="298" y="1340" type="line"/>
			<point x="702" y="1340" type="line" smooth="yes"/>
			<point x="1056" y="1340"/>
			<point x="1300" y="1056"/>
			<point x="1251" y="703" type="curve" smooth="yes"/>
			<point x="1201" y="348"/>
			<point x="874" y="60"/>
			<point x="518" y="60" type="curve" smooth="yes"/>
		</contour>
	</outline>
</glyph>
<glyph name="I" format="2">
	<advance width="360"/>
	<unicode hex="0049"/>
	<outline>
		<contour>
			<point x="80" y="0" type="line"/>
			<point x="140" y="0" type="line"/>
			<point x="336" y="1400" type="line"/>
			<point x="276" y="1400" type="line"/>
		</contour>
	</outline>
</glyph>
<glyph name="J" format="2">
	<advance width="738"/>
	<unicode hex="004A"/>
	<outline>
		<contour>
			<point x="193" y="-26" type="curve" smooth="yes"/>
			<point x="388" y="-26"/>
			<point x="569" y="150"/>
			<point x="596" y="344" type="curve" smooth="yes"/>
			<point x="744" y="1400" type="line"/>
			<point x="684" y="1400" type="line"/>
			<point x="537" y="348" type="line" smooth="yes"/>
			<point x="514" y="186"/>
			<point x="359" y="34"/>
			<point x="195" y="34" type="curve" smooth="yes"/>
			<point x="129" y="34"/>
			<point x="66" y="57"/>
			<point x="21" y="101" type="curve"/>
			<point x="-22" y="57" type="line"/>
			<point x="33" y="3"/>
			<point x="110" y="-26"/>
		</contour>
	</outline>
</glyph>
<glyph name="L" format="2">
	<advance width="970"/>
	<unicode hex="004C"/>
	<outline>
		<contour>
			<point x="50" y="0" type="line"/>
			<point x="800" y="0" type="line"/>
			<point x="808" y="60" type="line"/>
			<point x="118" y="60" type="line"/>
			<point x="306" y="1400" type="line"/>
			<point x="246" y="1400" type="line"/>
		</contour>
	</outline>
</glyph>
<glyph name="M" format="2">
	<advance width="1692"/>
	<unicode hex="004D"/>
	<outline>
		<contour>
			<point x="49" y="0" type="line"/>
			<point x="110" y="0" type="line"/>
			<point x="521" y="1228" type="line"/>
			<point x="780" y="138" type="line"/>
			<point x="810" y="138" type="line"/>
			<point x="1375" y="1228" type="line"/>
			<point x="1440" y="0" type="line"/>
			<point x="1501" y="0" type="line"/>
			<point x="1426" y="1400" type="line"/>
			<point x="1400" y="1400" type="line"/>
			<point x="812" y="268" type="line"/>
			<point x="542" y="1400" type="line"/>
			<point x="516" y="1400" type="line"/>
		</contour>
	</outline>
</glyph>
<glyph name="O" format="2">
	<advance width="1540"/>
	<unicode hex="004F"/>
	<outline>
		<contour>
			<point x="699" y="-26" type="curve" smooth="yes"/>
			<point x="1078" y="-26"/>
			<point x="1432" y="298"/>
			<point x="1488" y="697" type="curve" smooth="yes"/>
			<point x="1544" y="1098"/>
			<point x="1278" y="1426"/>
			<point x="897" y="1426" type="curve" smooth="yes"/>
			<point x="518" y="1426"/>
			<point x="165" y="1102"/>
			<point x="109" y="703" type="curve" smooth="yes"/>
			<point x="52" y="302"/>
			<point x="318" y="-26"/>
		</contour>
		<contour>
			<point x="701" y="34" type="curve" smooth="yes"/>
			<point x="355" y="34"/>
			<point x="116" y="332"/>
			<point x="168" y="697" type="curve" smooth="yes"/>
			<point x="218" y="1058"/>
			<point x="541" y="1366"/>
			<point x="895" y="1366" type="curve" smooth="yes"/>
			<point x="1241" y="1366"/>
			<point x="1480" y="1066"/>
			<point x="1429" y="703" type="curve" smooth="yes"/>
			<point x="1378" y="342"/>
			<point x="1055" y="34"/>
		</contour>
	</outline>
</glyph>
<glyph name="Q" format="2">
	<advance width="1538"/>
	<unicode hex="0051"/>
	<outline>
		<contour>
			<point x="1342" y="-10" type="line"/>
			<point x="1388" y="32" type="line"/>
			<point x="1235" y="207" type="line"/>
			<point x="1368" y="337"/>
			<point x="1459" y="508"/>
			<point x="1486" y="697" type="curve" smooth="yes"/>
			<point x="1542" y="1098"/>
			<point x="1278" y="1426"/>
			<point x="897" y="1426" type="curve" smooth="yes"/>
			<point x="516" y="1426"/>
			<point x="165" y="1102"/>
			<point x="109" y="703" type="curve" smooth="yes"/>
			<point x="52" y="302"/>
			<point x="316" y="-26"/>
			<point x="699" y="-26" type="curve" smooth="yes"/>
			<point x="876" y="-26"/>
			<point x="1049" y="45"/>
			<point x="1190" y="165" type="curve"/>
		</contour>
		<contour>
			<point x="701" y="34" type="curve" smooth="yes"/>
			<point x="357" y="34"/>
			<point x="116" y="332"/>
			<point x="168" y="697" type="curve" smooth="yes"/>
			<point x="218" y="1056"/>
			<point x="541" y="1366"/>
			<point x="895" y="1366" type="curve" smooth="yes"/>
			<point x="1237" y="1366"/>
			<point x="1478" y="1068"/>
			<point x="1427" y="703" type="curve" smooth="yes"/>
			<point x="1403" y="538"/>
			<point x="1322" y="377"/>
			<point x="1198" y="253" type="curve"/>
			<point x="968" y="520" type="line"/>
			<point x="921" y="476" type="line"/>
			<point x="1151" y="209" type="line"/>
			<point x="1024" y="99"/>
			<point x="857" y="34"/>
		</contour>
	</outline>
</glyph>
<glyph name="R" format="2">
	<advance width="1070"/>
	<unicode hex="0052"/>
	<outline>
		<contour>
			<point x="80" y="0" type="line"/>
			<point x="140" y="0" type="line"/>
			<point x="224" y="600" type="line"/>
			<point x="557" y="600" type="line"/>
			<point x="820" y="0" type="line"/>
			<point x="889" y="0" type="line"/>
			<point x="627" y="602" type="line"/>
			<point x="828" y="618"/>
			<point x="1009" y="780"/>
			<point x="1040" y="997" type="curve" smooth="yes"/>
			<point x="1072" y="1226"/>
			<point x="923" y="1400"/>
			<point x="703" y="1400" type="curve" smooth="yes"/>
			<point x="276" y="1400" type="line"/>
		</contour>
		<contour>
			<point x="232" y="660" type="line"/>
			<point x="328" y="1340" type="line"/>
			<point x="698" y="1340" type="line" smooth="yes"/>
			<point x="880" y="1340"/>
			<point x="1008" y="1198"/>
			<point x="981" y="1003" type="curve" smooth="yes"/>
			<point x="953" y="806"/>
			<point x="781" y="660"/>
			<point x="599" y="660" type="curve" smooth="yes"/>
		</contour>
	</outline>
</glyph>
<glyph name="T" format="2">
	<advance width="1258"/>
	<unicode hex="0054"/>
	<outline>
		<contour>
			<point x="1304" y="1400" type="line"/>
			<point x="206" y="1400" type="line"/>
			<point x="198" y="1340" type="line"/>
			<point x="716" y="1340" type="line"/>
			<point x="528" y="0" type="line"/>
			<point x="588" y="0" type="line"/>
			<point x="776" y="1340" type="line"/>
			<point x="1296" y="1340" type="line"/>
		</contour>
	</outline>
</glyph>
<glyph name="X" format="2">
	<advance width="1220"/>
	<unicode hex="0058"/>
	<outline>
		<contour>
			<point x="-11" y="0" type="line"/>
			<point x="66" y="0" type="line"/>
			<point x="633" y="652" type="line"/>
			<point x="1016" y="0" type="line"/>
			<point x="1089" y="0" type="line"/>
			<point x="677" y="704" type="line"/>
			<point x="1283" y="1402" type="line"/>
			<point x="1208" y="1402" type="line"/>
			<point x="644" y="754" type="line"/>
			<point x="264" y="1402" type="line"/>
			<point x="191" y="1402" type="line"/>
			<point x="603" y="704" type="line"/>
		</contour>
	</outline>
</glyph>
<glyph name="Z" format="2">
	<advance width="1372"/>
	<unicode hex="005A"/>
	<outline>
		<contour>
			<point x="50" y="0" type="line"/>
			<point x="1182" y="0" type="line"/>
			<point x="1190" y="60" type="line"/>
			<point x="137" y="60" type="line"/>
			<point x="1371" y="1340" type="line"/>
			<point x="1378" y="1400" type="line"/>
			<point x="246" y="1400" type="line"/>
			<point x="238" y="1340" type="line"/>
			<point x="1291" y="1340" type="line"/>
			<point x="58" y="60" type="line"/>
		</contour>
	</outline>
</glyph>
<glyph name="bracketright" format="2">
	<advance width="460"/>
	<unicode hex="005D"/>
	<outline>
		<contour>
			<point x="14" y="-112" type="line"/>
			<point x="254" y="-112" type="line"/>
			<point x="466" y="1400" type="line"/>
			<point x="226" y="1400" type="line"/>
			<point x="218" y="1340" type="line"/>
			<point x="398" y="1340" type="line"/>
			<point x="202" y="-52" type="line"/>
			<point x="22" y="-52" type="line"/>
		</contour>
	</outline>
</glyph>
<glyph name="asciicircum" format="2">
	<advance width="652"/>
	<unicode hex="005E"/>
	<outline>
		<contour>
			<point x="150" y="1000" type="line"/>
			<point x="213" y="1000" type="line"/>
			<point x="468" y="1502" type="line"/>
			<point x="579" y="1000" type="line"/>
			<point x="642" y="1000" type="line"/>
			<point x="497" y="1650" type="line"/>
			<point x="477" y="1650" type="line"/>
		</contour>
	</outline>
</glyph>
<glyph name="underscore" format="2">
	<advance width="1240"/>
	<unicode hex="005F"/>
	<outline>
		<contour>
			<point x="42" y="-52" type="line"/>
			<point x="34" y="-112" type="line"/>
			<point x="1034" y="-112" type="line"/>
			<point x="1042" y="-52" type="line"/>
		</contour>
	</outline>
</glyph>
<glyph name="b" format="2">
	<advance width="1174"/>
	<unicode hex="0062"/>
	<outline>
		<contour>
			<point x="659" y="1028" type="curve"/>
			<point x="467" y="1028"/>
			<point x="311" y="926"/>
			<point x="217" y="770" type="curve"/>
			<point x="321" y="1500" type="line"/>
			<point x="261" y="1500" type="line"/>
			<point x="50" y="0" type="line"/>
			<point x="110" y="0" type="line"/>
			<point x="144" y="236" type="line"/>
			<point x="194" y="80"/>
			<point x="322" y="-26"/>
			<point x="517" y="-26" type="curve"/>
			<point x="806" y="-26"/>
			<point x="1073" y="208"/>
			<point x="1114" y="497" type="curve"/>
			<point x="1155" y="790"/>
			<point x="951" y="1028"/>
		</contour>
		<contour>
			<point x="519" y="34" type="curve"/>
			<point x="267" y="34"/>
			<point x="147" y="238"/>
			<point x="184" y="497" type="curve"/>
			<point x="220" y="754"/>
			<point x="397" y="968"/>
			<point x="657" y="968" type="curve"/>
			<point x="905" y="968"/>
			<point x="1091" y="766"/>
			<point x="1054" y="503" type="curve"/>
			<point x="1018" y="246"/>
			<point x="779" y="34"/>
		</contour>
	</outline>
</glyph>
<glyph name="e" format="2">
	<advance width="1118"/>
	<unicode hex="0065"/>
	<outline>
		<contour>
			<point x="489" y="-26" type="curve" smooth="yes"/>
			<point x="688" y="-26"/>
			<point x="876" y="96"/>
			<point x="981" y="274" type="curve"/>
			<point x="922" y="291" type="line"/>
			<point x="819" y="131"/>
			<point x="663" y="34"/>
			<point x="491" y="34" type="curve" smooth="yes"/>
			<point x="263" y="34"/>
			<point x="100" y="218"/>
			<point x="115" y="468" type="curve"/>
			<point x="1054" y="468" type="line"/>
			<point x="1094" y="802"/>
			<point x="919" y="1028"/>
			<point x="631" y="1028" type="curve" smooth="yes"/>
			<point x="357" y="1028"/>
			<point x="101" y="794"/>
			<point x="60" y="503" type="curve" smooth="yes"/>
			<point x="19" y="212"/>
			<point x="212" y="-26"/>
		</contour>
		<contour>
			<point x="124" y="528" type="line"/>
			<point x="174" y="770"/>
			<point x="389" y="968"/>
			<point x="629" y="968" type="curve" smooth="yes"/>
			<point x="863" y="968"/>
			<point x="1027" y="766"/>
			<point x="1003" y="532" type="curve"/>
		</contour>
	</outline>
</glyph>
<glyph name="g" format="2">
	<advance width="1136"/>
	<unicode hex="0067"/>
	<outline>
		<contour>
			<point x="1026" y="1000" type="line"/>
			<point x="993" y="768" type="line"/>
			<point x="941" y="922"/>
			<point x="815" y="1028"/>
			<point x="631" y="1028" type="curve"/>
			<point x="357" y="1028"/>
			<point x="101" y="794"/>
			<point x="60" y="503" type="curve"/>
			<point x="19" y="212"/>
			<point x="212" y="-26"/>
			<point x="489" y="-26" type="curve"/>
			<point x="670" y="-26"/>
			<point x="823" y="76"/>
			<point x="919" y="230" type="curve"/>
			<point x="879" y="-48" type="line"/>
			<point x="851" y="-248"/>
			<point x="620" y="-440"/>
			<point x="413" y="-440" type="curve"/>
			<point x="236" y="-440"/>
			<point x="68" y="-292"/>
			<point x="60" y="-112" type="curve"/>
			<point x="1" y="-134" type="line"/>
			<point x="20" y="-328"/>
			<point x="201" y="-500"/>
			<point x="411" y="-500" type="curve"/>
			<point x="645" y="-500"/>
			<point x="906" y="-284"/>
			<point x="938" y="-52" type="curve"/>
			<point x="1086" y="1000" type="line"/>
		</contour>
		<contour>
			<point x="491" y="34" type="curve"/>
			<point x="253" y="34"/>
			<point x="83" y="238"/>
			<point x="120" y="497" type="curve"/>
			<point x="156" y="756"/>
			<point x="381" y="968"/>
			<point x="629" y="968" type="curve"/>
			<point x="871" y="968"/>
			<point x="990" y="756"/>
			<point x="954" y="503" type="curve"/>
			<point x="919" y="254"/>
			<point x="741" y="34"/>
		</contour>
	</outline>
</glyph>
<glyph name="i" format="2">
	<advance width="330"/>
	<unicode hex="0069"/>
	<outline>
		<contour>
			<point x="196" y="1000" type="line"/>
			<point x="56" y="0" type="line"/>
			<point x="116" y="0" type="line"/>
			<point x="256" y="1000" type="line"/>
		</contour>
		<contour>
			<point x="266" y="1200" type="curve"/>
			<point x="288" y="1200"/>
			<point x="312" y="1222"/>
			<point x="314" y="1241" type="curve"/>
			<point x="318" y="1266"/>
			<point x="297" y="1290"/>
			<point x="272" y="1290" type="curve"/>
			<point x="249" y="1290"/>
			<point x="228" y="1270"/>
			<point x="225" y="1247" type="curve"/>
			<point x="222" y="1226"/>
			<point x="240" y="1200"/>
		</contour>
	</outline>
</glyph>
<glyph name="k" format="2">
	<advance width="944"/>
	<unicode hex="006B"/>
	<outline>
		<contour>
			<point x="773" y="0" type="line"/>
			<point x="510" y="602" type="line"/>
			<point x="903" y="1000" type="line"/>
			<point x="824" y="1000" type="line"/>
			<point x="189" y="352" type="line"/>
			<point x="351" y="1500" type="line"/>
			<point x="291" y="1500" type="line"/>
			<point x="80" y="0" type="line"/>
			<point x="140" y="0" type="line"/>
			<point x="177" y="258" type="line"/>
			<point x="465" y="552" type="line"/>
			<point x="706" y="0" type="line"/>
		</contour>
	</outline>
</glyph>
<glyph name="n" format="2">
	<advance width="1038"/>
	<unicode hex="006E"/>
	<outline>
		<contour>
			<point x="945" y="552" type="line"/>
			<point x="977" y="804"/>
			<point x="831" y="1028"/>
			<point x="589" y="1028" type="curve"/>
			<point x="443" y="1028"/>
			<point x="304" y="943"/>
			<point x="201" y="797" type="curve"/>
			<point x="230" y="1000" type="line"/>
			<point x="170" y="1000" type="line"/>
			<point x="30" y="0" type="line"/>
			<point x="90" y="0" type="line"/>
			<point x="167" y="548" type="line"/>
			<point x="199" y="778"/>
			<point x="389" y="968"/>
			<point x="587" y="968" type="curve"/>
			<point x="783" y="968"/>
			<point x="918" y="782"/>
			<point x="885" y="552" type="curve"/>
			<point x="808" y="0" type="line"/>
			<point x="868" y="0" type="line"/>
		</contour>
	</outline>
</glyph>
<glyph name="o" format="2">
	<advance width="1120"/>
	<unicode hex="006F"/>
	<outline>
		<contour>
			<point x="489" y="-26" type="curve" smooth="yes"/>
			<point x="764" y="-26"/>
			<point x="1019" y="208"/>
			<point x="1060" y="497" type="curve" smooth="yes"/>
			<point x="1101" y="790"/>
			<point x="909" y="1028"/>
			<point x="631" y="1028" type="curve" smooth="yes"/>
			<point x="357" y="1028"/>
			<point x="101" y="794"/>
			<point x="60" y="503" type="curve" smooth="yes"/>
			<point x="19" y="212"/>
			<point x="212" y="-26"/>
		</contour>
		<contour>
			<point x="491" y="34" type="curve" smooth="yes"/>
			<point x="253" y="34"/>
			<point x="83" y="238"/>
			<point x="120" y="497" type="curve" smooth="yes"/>
			<point x="155" y="750"/>
			<point x="377" y="968"/>
			<point x="629" y="968" type="curve" smooth="yes"/>
			<point x="875" y="968"/>
			<point x="1036" y="754"/>
			<point x="1000" y="503" type="curve" smooth="yes"/>
			<point x="965" y="252"/>
			<point x="741" y="34"/>
		</contour>
	</outline>
</glyph>
<glyph name="q" format="2">
	<advance width="1194"/>
	<unicode hex="0071"/>
	<outline>
		<contour>
			<point x="535" y="-28" type="curve"/>
			<point x="727" y="-28"/>
			<point x="883" y="74"/>
			<point x="977" y="230" type="curve"/>
			<point x="873" y="-500" type="line"/>
			<point x="933" y="-500" type="line"/>
			<point x="1144" y="1000" type="line"/>
			<point x="1084" y="1000" type="line"/>
			<point x="1050" y="764" type="line"/>
			<point x="1000" y="920"/>
			<point x="872" y="1026"/>
			<point x="677" y="1026" type="curve"/>
			<point x="388" y="1026"/>
			<point x="121" y="792"/>
			<point x="80" y="503" type="curve"/>
			<point x="39" y="210"/>
			<point x="243" y="-28"/>
		</contour>
		<contour>
			<point x="675" y="966" type="curve"/>
			<point x="927" y="966"/>
			<point x="1047" y="762"/>
			<point x="1010" y="503" type="curve"/>
			<point x="974" y="246"/>
			<point x="797" y="32"/>
			<point x="537" y="32" type="curve"/>
			<point x="289" y="32"/>
			<point x="103" y="234"/>
			<point x="140" y="497" type="curve"/>
			<point x="176" y="754"/>
			<point x="415" y="966"/>
		</contour>
	</outline>
</glyph>
<glyph name="r" format="2">
	<advance width="682"/>
	<unicode hex="0072"/>
	<outline>
		<contour>
			<point x="707" y="951" type="curve"/>
			<point x="722" y="1009" type="line"/>
			<point x="690" y="1021"/>
			<point x="653" y="1028"/>
			<point x="611" y="1028" type="curve"/>
			<point x="465" y="1028"/>
			<point x="324" y="943"/>
			<point x="221" y="797" type="curve"/>
			<point x="250" y="1000" type="line"/>
			<point x="190" y="1000" type="line"/>
			<point x="50" y="0" type="line"/>
			<point x="110" y="0" type="line"/>
			<point x="187" y="548" type="line"/>
			<point x="219" y="778"/>
			<point x="409" y="968"/>
			<point x="609" y="968" type="curve"/>
			<point x="643" y="968"/>
			<point x="677" y="963"/>
		</contour>
	</outline>
</glyph>
<glyph name="s" format="2">
	<advance width="872"/>
	<unicode hex="0073"/>
	<outline>
		<contour>
			<point x="380" y="-20" type="curve"/>
			<point x="565" y="-20"/>
			<point x="750" y="86"/>
			<point x="774" y="255" type="curve"/>
			<point x="797" y="422"/>
			<point x="633" y="477"/>
			<point x="452" y="537" type="curve" smooth="yes"/>
			<point x="272" y="597"/>
			<point x="166" y="616"/>
			<point x="186" y="753" type="curve"/>
			<point x="205" y="888"/>
			<point x="360" y="974"/>
			<point x="520" y="974" type="curve"/>
			<point x="644" y="974"/>
			<point x="777" y="914"/>
			<point x="804" y="808" type="curve"/>
			<point x="859" y="834" type="line"/>
			<point x="827" y="950"/>
			<point x="689" y="1034"/>
			<point x="522" y="1034" type="curve"/>
			<point x="335" y="1034"/>
			<point x="150" y="928"/>
			<point x="126" y="759" type="curve"/>
			<point x="103" y="592"/>
			<point x="229" y="551"/>
			<point x="450" y="479" type="curve" smooth="yes"/>
			<point x="590" y="433"/>
			<point x="733" y="396"/>
			<point x="714" y="261" type="curve"/>
			<point x="696" y="130"/>
			<point x="540" y="40"/>
			<point x="382" y="40" type="curve"/>
			<point x="258" y="40"/>
			<point x="99" y="110"/>
			<point x="76" y="218" type="curve"/>
			<point x="18" y="198" type="line"/>
			<point x="43" y="78"/>
			<point x="207" y="-20"/>
		</contour>
	</outline>
</glyph>
<glyph name="t" format="2">
	<advance width="670"/>
	<unicode hex="0074"/>
	<outline>
		<contour>
			<point x="675" y="940" type="line"/>
			<point x="683" y="1000" type="line"/>
			<point x="409" y="1000" type="line"/>
			<point x="461" y="1384" type="line"/>
			<point x="401" y="1384" type="line"/>
			<point x="349" y="1000" type="line"/>
			<point x="143" y="1000" type="line"/>
			<point x="135" y="940" type="line"/>
			<point x="341" y="940" type="line"/>
			<point x="206" y="0" type="line"/>
			<point x="266" y="0" type="line"/>
			<point x="401" y="940" type="line"/>
		</contour>
	</outline>
</glyph>
<glyph name="u" format="2">
	<advance width="1078"/>
	<unicode hex="0075"/>
	<outline>
		<contour>
			<point x="113" y="450" type="line"/>
			<point x="82" y="198"/>
			<point x="228" y="-26"/>
			<point x="469" y="-26" type="curve"/>
			<point x="616" y="-26"/>
			<point x="755" y="59"/>
			<point x="857" y="205" type="curve"/>
			<point x="828" y="0" type="line"/>
			<point x="888" y="0" type="line"/>
			<point x="1028" y="1000" type="line"/>
			<point x="968" y="1000" type="line"/>
			<point x="891" y="454" type="line"/>
			<point x="859" y="224"/>
			<point x="669" y="34"/>
			<point x="471" y="34" type="curve"/>
			<point x="275" y="34"/>
			<point x="141" y="220"/>
			<point x="173" y="450" type="curve"/>
			<point x="250" y="1000" type="line"/>
			<point x="190" y="1000" type="line"/>
		</contour>
	</outline>
</glyph>
<glyph name="v" format="2">
	<advance width="924"/>
	<unicode hex="0076"/>
	<outline>
		<contour>
			<point x="428" y="0" type="line"/>
			<point x="935" y="1004" type="line"/>
			<point x="870" y="1004" type="line"/>
			<point x="401" y="74" type="line"/>
			<point x="194" y="1004" type="line"/>
			<point x="131" y="1004" type="line"/>
			<point x="356" y="0" type="line"/>
		</contour>
	</outline>
</glyph>
<glyph name="y" format="2">
	<advance width="946"/>
	<unicode hex="0079"/>
	<outline>
		<contour>
			<point x="874" y="1000" type="line"/>
			<point x="409" y="84" type="line"/>
			<point x="216" y="1000" type="line"/>
			<point x="151" y="1000" type="line"/>
			<point x="368" y="2" type="line"/>
			<point x="115" y="-500" type="line"/>
			<point x="180" y="-500" type="line"/>
			<point x="937" y="1000" type="line"/>
		</contour>
	</outline>
</glyph>
<glyph name="z" format="2">
	<advance width="1054"/>
	<unicode hex="007A"/>
	<outline>
		<contour>
			<point x="1016" y="940" type="line"/>
			<point x="1024" y="1000" type="line"/>
			<point x="170" y="1000" type="line"/>
			<point x="162" y="940" type="line"/>
			<point x="935" y="940" type="line"/>
			<point x="38" y="60" type="line"/>
			<point x="30" y="0" type="line"/>
			<point x="884" y="0" type="line"/>
			<point x="892" y="60" type="line"/>
			<point x="119" y="60" type="line"/>
		</contour>
	</outline>
</glyph>
<glyph name="braceleft" format="2">
	<advance width="790"/>
	<unicode hex="007B"/>
	<outline>
		<contour>
			<point x="557" y="-114" type="curve"/>
			<point x="604" y="-114" type="line"/>
			<point x="612" y="-54" type="line"/>
			<point x="562" y="-54" type="line"/>
			<point x="402" y="-54"/>
			<point x="292" y="74"/>
			<point x="315" y="234" type="curve"/>
			<point x="349" y="482" type="line"/>
			<point x="358" y="568"/>
			<point x="337" y="573"/>
			<point x="232" y="640" type="curve"/>
			<point x="355" y="707"/>
			<point x="378" y="714"/>
			<point x="394" y="800" type="curve"/>
			<point x="429" y="1048" type="line"/>
			<point x="452" y="1208"/>
			<point x="604" y="1340"/>
			<point x="762" y="1340" type="curve"/>
			<point x="808" y="1340" type="line"/>
			<point x="816" y="1400" type="line"/>
			<point x="767" y="1400" type="line"/>
			<point x="573" y="1400"/>
			<point x="397" y="1244"/>
			<point x="370" y="1052" type="curve"/>
			<point x="335" y="806" type="line"/>
			<point x="315" y="706"/>
			<point x="153" y="736"/>
			<point x="140" y="645" type="curve"/>
			<point x="128" y="560"/>
			<point x="298" y="584"/>
			<point x="290" y="484" type="curve"/>
			<point x="255" y="238" type="line"/>
			<point x="228" y="46"/>
			<point x="363" y="-114"/>
		</contour>
	</outline>
</glyph>
<glyph name="exclamdown" format="2">
	<advance width="250"/>
	<unicode hex="00A1"/>
	<outline>
		<contour>
			<point x="195" y="1026" type="curve"/>
			<point x="172" y="1026"/>
			<point x="151" y="1008"/>
			<point x="148" y="983" type="curve"/>
			<point x="144" y="958"/>
			<point x="163" y="936"/>
			<point x="189" y="936" type="curve"/>
			<point x="213" y="936"/>
			<point x="234" y="954"/>
			<point x="237" y="977" type="curve"/>
			<point x="241" y="1004"/>
			<point x="222" y="1026"/>
		</contour>
		<contour>
			<point x="165" y="580" type="line"/>
			<point x="105" y="580" type="line"/>
			<point x="-32" y="-400" type="line"/>
			<point x="28" y="-400" type="line"/>
		</contour>
	</outline>
</glyph>
<glyph name="cent" format="2">
	<advance width="1092"/>
	<unicode hex="00A2"/>
	<outline>
		<contour>
			<point x="478" y="0" type="line"/>
			<point x="538" y="0" type="line"/>
			<point x="568" y="200" type="line"/>
			<point x="739" y="208"/>
			<point x="901" y="301"/>
			<point x="1004" y="439" type="curve"/>
			<point x="955" y="471" type="line"/>
			<point x="859" y="343"/>
			<point x="696" y="258"/>
			<point x="545" y="258" type="curve" smooth="yes"/>
			<point x="308" y="258"/>
			<point x="133" y="450"/>
			<point x="168" y="699" type="curve" smooth="yes"/>
			<point x="202" y="944"/>
			<point x="432" y="1144"/>
			<point x="676" y="1144" type="curve" smooth="yes"/>
			<point x="824" y="1144"/>
			<point x="962" y="1061"/>
			<point x="1022" y="933" type="curve"/>
			<point x="1076" y="961" type="line"/>
			<point x="1011" y="1099"/>
			<point x="874" y="1194"/>
			<point x="705" y="1202" type="curve"/>
			<point x="735" y="1400" type="line"/>
			<point x="674" y="1400" type="line"/>
			<point x="645" y="1202" type="line"/>
			<point x="380" y="1184"/>
			<point x="146" y="970"/>
			<point x="109" y="705" type="curve" smooth="yes"/>
			<point x="71" y="438"/>
			<point x="248" y="218"/>
			<point x="508" y="200" type="curve"/>
		</contour>
	</outline>
</glyph>
<glyph name="currency" format="2">
	<advance width="950"/>
	<unicode hex="00A4"/>
	<outline>
		<contour>
			<point x="96" y="304" type="line"/>
			<point x="234" y="427" type="line" smooth="yes"/>
			<point x="353" y="311"/>
			<point x="546" y="307"/>
			<point x="698" y="423" type="curve" smooth="yes"/>
			<point x="802" y="304" type="line"/>
			<point x="848" y="346" type="line"/>
			<point x="748" y="465" type="line" smooth="yes"/>
			<point x="879" y="599"/>
			<point x="905" y="797"/>
			<point x="809" y="931" type="curve" smooth="yes"/>
			<point x="948" y="1054" type="line"/>
			<point x="911" y="1096" type="line"/>
			<point x="771" y="973" type="line" smooth="yes"/>
			<point x="657" y="1083"/>
			<point x="457" y="1083"/>
			<point x="311" y="973" type="curve" smooth="yes"/>
			<point x="205" y="1096" type="line"/>
			<point x="158" y="1054" type="line"/>
			<point x="262" y="931" type="line" smooth="yes"/>
			<point x="131" y="797"/>
			<point x="106" y="603"/>
			<point x="197" y="469" type="curve" smooth="yes"/>
			<point x="58" y="346" type="line"/>
		</contour>
		<contour>
			<point x="458" y="398" type="curve"/>
			<point x="302" y="398"/>
			<point x="182" y="526"/>
			<point x="205" y="695" type="curve"/>
			<point x="229" y="862"/>
			<point x="381" y="996"/>
			<point x="549" y="996" type="curve"/>
			<point x="715" y="996"/>
			<point x="827" y="866"/>
			<point x="804" y="701" type="curve"/>
			<point x="781" y="534"/>
			<point x="624" y="398"/>
		</contour>
	</outline>
</glyph>
<glyph name="yen" format="2">
	<advance width="1148"/>
	<unicode hex="00A5"/>
	<outline>
		<contour>
			<point x="474" y="0" type="line"/>
			<point x="534" y="0" type="line"/>
			<point x="566" y="227" type="line"/>
			<point x="900" y="227" type="line"/>
			<point x="908" y="287" type="line"/>
			<point x="574" y="287" type="line"/>
			<point x="603" y="493" type="line"/>
			<point x="937" y="493" type="line"/>
			<point x="945" y="553" type="line"/>
			<point x="611" y="553" type="line"/>
			<point x="624" y="636" type="line"/>
			<point x="1195" y="1400" type="line"/>
			<point x="1124" y="1400" type="line"/>
			<point x="601" y="702" type="line"/>
			<point x="276" y="1400" type="line"/>
			<point x="207" y="1400" type="line"/>
			<point x="564" y="636" type="line"/>
			<point x="551" y="553" type="line"/>
			<point x="217" y="553" type="line"/>
			<point x="209" y="493" type="line"/>
			<point x="543" y="493" type="line"/>
			<point x="514" y="287" type="line"/>
			<point x="180" y="287" type="line"/>
			<point x="172" y="227" type="line"/>
			<point x="506" y="227" type="line"/>
		</contour>
	</outline>
</glyph>
<glyph name="logicalnot" format="2">
	<advance width="934"/>
	<unicode hex="00AC"/>
	<outline>
		<contour>
			<point x="771" y="335" type="line"/>
			<point x="831" y="335" type="line"/>
			<point x="905" y="865" type="line"/>
			<point x="131" y="865" type="line"/>
			<point x="123" y="805" type="line"/>
			<point x="837" y="805" type="line"/>
		</contour>
	</outline>
</glyph>
<glyph name="registered" format="2">
	<advance width="896"/>
	<unicode hex="00AE"/>
	<outline>
		<contour>
			<point x="453" y="512" type="curve" smooth="yes"/>
			<point x="668" y="514"/>
			<point x="863" y="690"/>
			<point x="892" y="897" type="curve" smooth="yes"/>
			<point x="921" y="1102"/>
			<point x="777" y="1288"/>
			<point x="555" y="1288" type="curve" smooth="yes"/>
			<point x="341" y="1288"/>
			<point x="146" y="1112"/>
			<point x="117" y="903" type="curve" smooth="yes"/>
			<point x="87" y="694"/>
			<point x="234" y="514"/>
		</contour>
		<contour>
			<point x="455" y="572" type="curve" smooth="yes"/>
			<point x="276" y="572"/>
			<point x="151" y="718"/>
			<point x="176" y="897" type="curve" smooth="yes"/>
			<point x="201" y="1078"/>
			<point x="372" y="1228"/>
			<point x="554" y="1228" type="curve" smooth="yes"/>
			<point x="732" y="1228"/>
			<point x="858" y="1082"/>
			<point x="833" y="903" type="curve" smooth="yes"/>
			<point x="807" y="722"/>
			<point x="636" y="572"/>
		</contour>
		<contour>
			<point x="368" y="714" type="line"/>
			<point x="428" y="714" type="line"/>
			<point x="451" y="876" type="line"/>
			<point x="483" y="876" type="line"/>
			<point x="555" y="714" type="line"/>
			<point x="623" y="714" type="line"/>
			<point x="552" y="878" type="line"/>
			<point x="602" y="888"/>
			<point x="640" y="930"/>
			<point x="648" y="981" type="curve" smooth="yes"/>
			<point x="656" y="1044"/>
			<point x="616" y="1094"/>
			<point x="558" y="1094" type="curve" smooth="yes"/>
			<point x="421" y="1094" type="line"/>
		</contour>
		<contour>
			<point x="459" y="936" type="line"/>
			<point x="473" y="1034" type="line"/>
			<point x="553" y="1034" type="line" smooth="yes"/>
			<point x="577" y="1034"/>
			<point x="592" y="1014"/>
			<point x="588" y="987" type="curve" smooth="yes"/>
			<point x="585" y="960"/>
			<point x="560" y="936"/>
			<point x="536" y="936" type="curve" smooth="yes"/>
		</contour>
	</outline>
</glyph>
<glyph name="macron" format="2">
	<advance width="1200"/>
	<unicode hex="00AF"/>
	<outline>
		<contour>
			<point x="378" y="1322" type="line"/>
			<point x="369" y="1262" type="line"/>
			<point x="1045" y="1262" type="line"/>
			<point x="1054" y="1322" type="line"/>
		</contour>
	</outline>
</glyph>
<glyph name="degree" format="2">
	<advance width="544"/>
	<unicode hex="00B0"/>
	<outline>
		<contour>
			<point x="330" y="888" type="curve" smooth="yes"/>
			<point x="434" y="888"/>
			<point x="530" y="972"/>
			<point x="545" y="1077" type="curve" smooth="yes"/>
			<point x="560" y="1184"/>
			<point x="485" y="1272"/>
			<point x="377" y="1272" type="curve" smooth="yes"/>
			<point x="273" y="1272"/>
			<point x="177" y="1188"/>
			<point x="162" y="1083" type="curve" smooth="yes"/>
			<point x="147" y="976"/>
			<point x="222" y="888"/>
		</contour>
		<contour>
			<point x="332" y="948" type="curve" smooth="yes"/>
			<point x="259" y="948"/>
			<point x="211" y="1004"/>
			<point x="221" y="1077" type="curve" smooth="yes"/>
			<point x="232" y="1152"/>
			<point x="300" y="1212"/>
			<point x="375" y="1212" type="curve" smooth="yes"/>
			<point x="448" y="1212"/>
			<point x="496" y="1156"/>
			<point x="486" y="1083" type="curve" smooth="yes"/>
			<point x="475" y="1008"/>
			<point x="407" y="948"/>
		</contour>
	</outline>
</glyph>
<glyph name="uni00B3" format="2">
	<advance width="540"/>
	<unicode hex="00B3"/>
	<outline>
		<contour>
			<point x="316" y="798" type="curve"/>
			<point x="423" y="798"/>
			<point x="520" y="873"/>
			<point x="536" y="983" type="curve"/>
			<point x="547" y="1065"/>
			<point x="521" y="1105"/>
			<point x="468" y="1149" type="curve"/>
			<point x="511" y="1169"/>
			<point x="552" y="1231"/>
			<point x="560" y="1292" type="curve"/>
			<point x="575" y="1394"/>
			<point x="501" y="1466"/>
			<point x="398" y="1466" type="curve"/>
			<point x="300" y="1466"/>
			<point x="210" y="1398"/>
			<point x="196" y="1297" type="curve"/>
			<point x="267" y="1293" type="line"/>
			<point x="276" y="1353"/>
			<point x="333" y="1394"/>
			<point x="395" y="1394" type="curve"/>
			<point x="453" y="1394"/>
			<point x="497" y="1357"/>
			<point x="489" y="1298" type="curve"/>
			<point x="479" y="1225"/>
			<point x="419" y="1185"/>
			<point x="328" y="1185" type="curve"/>
			<point x="321" y="1113" type="line"/>
			<point x="424" y="1113"/>
			<point x="476" y="1067"/>
			<point x="465" y="989" type="curve"/>
			<point x="455" y="918"/>
			<point x="391" y="870"/>
			<point x="320" y="870" type="curve"/>
			<point x="249" y="870"/>
			<point x="202" y="914"/>
			<point x="212" y="984" type="curve"/>
			<point x="141" y="988" type="line"/>
			<point x="125" y="877"/>
			<point x="205" y="798"/>
		</contour>
	</outline>
</glyph>
<glyph name="questiondown" format="2">
	<advance width="884"/>
	<unicode hex="00BF"/>
	<outline>
		<contour>
			<point x="315" y="-428" type="curve" smooth="yes"/>
			<point x="513" y="-428"/>
			<point x="696" y="-268"/>
			<point x="724" y="-68" type="curve"/>
			<point x="665" y="-64" type="line"/>
			<point x="641" y="-230"/>
			<point x="484" y="-368"/>
			<point x="317" y="-368" type="curve" smooth="yes"/>
			<point x="152" y="-368"/>
			<point x="37" y="-234"/>
			<point x="60" y="-69" type="curve" smooth="yes"/>
			<point x="76" y="46"/>
			<point x="150" y="149"/>
			<point x="253" y="200" type="curve" smooth="yes"/>
			<point x="364" y="259"/>
			<point x="439" y="363"/>
			<point x="455" y="478" type="curve"/>
			<point x="395" y="482" type="line"/>
			<point x="382" y="386"/>
			<point x="317" y="300"/>
			<point x="227" y="256" type="curve" smooth="yes"/>
			<point x="106" y="195"/>
			<point x="20" y="72"/>
			<point x="1" y="-63" type="curve" smooth="yes"/>
			<point x="-27" y="-264"/>
			<point x="113" y="-428"/>
		</contour>
		<contour>
			<point x="507" y="936" type="curve" smooth="yes"/>
			<point x="529" y="936"/>
			<point x="550" y="954"/>
			<point x="553" y="977" type="curve" smooth="yes"/>
			<point x="557" y="1004"/>
			<point x="538" y="1026"/>
			<point x="513" y="1026" type="curve" smooth="yes"/>
			<point x="488" y="1026"/>
			<point x="467" y="1008"/>
			<point x="464" y="983" type="curve" smooth="yes"/>
			<point x="460" y="958"/>
			<point x="479" y="936"/>
		</contour>
	</outline>
</glyph>
<glyph name="AE" format="2">
	<advance width="1574"/>
	<unicode hex="00C6"/>
	<outline>
		<contour>
			<point x="9" y="0" type="line"/>
			<point x="74" y="0" type="line"/>
			<point x="246" y="340" type="line"/>
			<point x="760" y="340" type="line"/>
			<point x="712" y="0" type="line"/>
			<point x="1404" y="0" type="line"/>
			<point x="1412" y="60" type="line"/>
			<point x="780" y="60" type="line"/>
			<point x="866" y="670" type="line"/>
			<point x="1402" y="670" type="line"/>
			<point x="1410" y="730" type="line"/>
			<point x="874" y="730" type="line"/>
			<point x="960" y="1340" type="line"/>
			<point x="1592" y="1340" type="line"/>
			<point x="1600" y="1400" type="line"/>
			<point x="716" y="1400" type="line"/>
		</contour>
		<contour>
			<point x="276" y="400" type="line"/>
			<point x="753" y="1340" type="line"/>
			<point x="900" y="1340" type="line"/>
			<point x="768" y="400" type="line"/>
		</contour>
	</outline>
</glyph>
<glyph name="multiply" format="2">
	<advance width="910"/>
	<unicode hex="00D7"/>
	<outline>
		<contour>
			<point x="85" y="226" type="line"/>
			<point x="463" y="558" type="line"/>
			<point x="749" y="226" type="line"/>
			<point x="797" y="268" type="line"/>
			<point x="510" y="600" type="line"/>
			<point x="891" y="932" type="line"/>
			<point x="851" y="974" type="line"/>
			<point x="473" y="642" type="line"/>
			<point x="187" y="974" type="line"/>
			<point x="141" y="932" type="line"/>
			<point x="426" y="600" type="line"/>
			<point x="47" y="268" type="line"/>
		</contour>
	</outline>
</glyph>
<glyph name="ae" format="2">
	<advance width="1907"/>
	<unicode hex="00E6"/>
	<outline>
		<contour>
			<point x="391" y="0" type="curve" smooth="yes"/>
			<point x="503" y="0" type="line" smooth="yes"/>
			<point x="671" y="0"/>
			<point x="827" y="120"/>
			<point x="875" y="284" type="curve"/>
			<point x="935" y="117"/>
			<point x="1085" y="0"/>
			<point x="1281" y="0" type="curve" smooth="yes"/>
			<point x="1479" y="0"/>
			<point x="1668" y="122"/>
			<point x="1773" y="300" type="curve"/>
			<point x="1713" y="317" type="line"/>
			<point x="1611" y="157"/>
			<point x="1454" y="60"/>
			<point x="1283" y="60" type="curve" smooth="yes"/>
			<point x="1054" y="60"/>
			<point x="892" y="244"/>
			<point x="907" y="494" type="curve"/>
			<point x="1845" y="494" type="line"/>
			<point x="1886" y="828"/>
			<point x="1710" y="1054"/>
			<point x="1423" y="1054" type="curve" smooth="yes"/>
			<point x="1218" y="1054"/>
			<point x="1023" y="924"/>
			<point x="920" y="734" type="curve"/>
			<point x="916" y="912"/>
			<point x="854" y="1054"/>
			<point x="605" y="1054" type="curve" smooth="yes"/>
			<point x="474" y="1054"/>
			<point x="306" y="1015"/>
			<point x="214" y="889" type="curve"/>
			<point x="263" y="857" type="line"/>
			<point x="342" y="963"/>
			<point x="491" y="994"/>
			<point x="603" y="994" type="curve" smooth="yes"/>
			<point x="897" y="994"/>
			<point x="872" y="798"/>
			<point x="854" y="558" type="curve"/>
			<point x="432" y="556" type="line" smooth="yes"/>
			<point x="252" y="556"/>
			<point x="82" y="518"/>
			<point x="45" y="321" type="curve"/>
			<point x="17" y="94"/>
			<point x="211" y="0"/>
		</contour>
		<contour>
			<point x="453" y="60" type="curve"/>
			<point x="248" y="60"/>
			<point x="79" y="110"/>
			<point x="104" y="315" type="curve"/>
			<point x="130" y="456"/>
			<point x="251" y="496"/>
			<point x="427" y="496" type="curve" smooth="yes"/>
			<point x="847" y="496" type="line"/>
			<point x="832" y="386" type="line"/>
			<point x="824" y="332"/>
			<point x="794" y="60"/>
		</contour>
		<contour>
			<point x="916" y="554" type="line"/>
			<point x="966" y="796"/>
			<point x="1181" y="994"/>
			<point x="1421" y="994" type="curve" smooth="yes"/>
			<point x="1655" y="994"/>
			<point x="1819" y="792"/>
			<point x="1794" y="558" type="curve"/>
		</contour>
	</outline>
</glyph>
<glyph name="igrave" format="2">
	<advance width="299"/>
	<unicode hex="00EC"/>
	<outline>
		<contour>
			<point x="189" y="1000" type="line"/>
			<point x="49" y="0" type="line"/>
			<point x="109" y="0" type="line"/>
			<point x="249" y="1000" type="line"/>
		</contour>
		<component base="grave" xOffset="-301"/>
	</outline>
</glyph>
<glyph name="thorn" format="2">
	<advance width="1194"/>
	<unicode hex="00FE"/>
	<outline>
		<contour>
			<point x="-21" y="-500" type="line"/>
			<point x="39" y="-500" type="line"/>
			<point x="143" y="234" type="line"/>
			<point x="193" y="78"/>
			<point x="321" y="-28"/>
			<point x="517" y="-28" type="curve" smooth="yes"/>
			<point x="805" y="-28"/>
			<point x="1073" y="206"/>
			<point x="1114" y="497" type="curve" smooth="yes"/>
			<point x="1155" y="788"/>
			<point x="950" y="1026"/>
			<point x="659" y="1026" type="curve" smooth="yes"/>
			<point x="466" y="1026"/>
			<point x="311" y="924"/>
			<point x="217" y="768" type="curve"/>
			<point x="306" y="1400" type="line"/>
			<point x="246" y="1400" type="line"/>
		</contour>
		<contour>
			<point x="519" y="32" type="curve" smooth="yes"/>
			<point x="263" y="32"/>
			<point x="148" y="242"/>
			<point x="184" y="497" type="curve" smooth="yes"/>
			<point x="220" y="758"/>
			<point x="401" y="966"/>
			<point x="657" y="966" type="curve" smooth="yes"/>
			<point x="913" y="966"/>
			<point x="1090" y="758"/>
			<point x="1054" y="503" type="curve" smooth="yes"/>
			<point x="1017" y="238"/>
			<point x="771" y="32"/>
		</contour>
	</outline>
</glyph>
<glyph name="oe" format="2">
	<advance width="2058"/>
	<unicode hex="0153"/>
	<outline>
		<contour>
			<point x="489" y="-26" type="curve" smooth="yes"/>
			<point x="704" y="-26"/>
			<point x="907" y="116"/>
			<point x="1006" y="320" type="curve"/>
			<point x="1047" y="120"/>
			<point x="1212" y="-26"/>
			<point x="1429" y="-26" type="curve" smooth="yes"/>
			<point x="1628" y="-26"/>
			<point x="1816" y="96"/>
			<point x="1921" y="274" type="curve"/>
			<point x="1862" y="291" type="line"/>
			<point x="1759" y="131"/>
			<point x="1603" y="34"/>
			<point x="1431" y="34" type="curve" smooth="yes"/>
			<point x="1203" y="34"/>
			<point x="1040" y="218"/>
			<point x="1055" y="468" type="curve"/>
			<point x="1994" y="468" type="line"/>
			<point x="2034" y="802"/>
			<point x="1859" y="1028"/>
			<point x="1571" y="1028" type="curve" smooth="yes"/>
			<point x="1357" y="1028"/>
			<point x="1154" y="886"/>
			<point x="1054" y="680" type="curve"/>
			<point x="1013" y="882"/>
			<point x="849" y="1028"/>
			<point x="631" y="1028" type="curve" smooth="yes"/>
			<point x="357" y="1028"/>
			<point x="101" y="794"/>
			<point x="60" y="503" type="curve" smooth="yes"/>
			<point x="19" y="212"/>
			<point x="212" y="-26"/>
		</contour>
		<contour>
			<point x="491" y="34" type="curve" smooth="yes"/>
			<point x="253" y="34"/>
			<point x="83" y="238"/>
			<point x="120" y="497" type="curve" smooth="yes"/>
			<point x="155" y="750"/>
			<point x="377" y="968"/>
			<point x="629" y="968" type="curve" smooth="yes"/>
			<point x="875" y="968"/>
			<point x="1036" y="754"/>
			<point x="1000" y="503" type="curve" smooth="yes"/>
			<point x="965" y="252"/>
			<point x="741" y="34"/>
		</contour>
		<contour>
			<point x="1064" y="528" type="line"/>
			<point x="1114" y="770"/>
			<point x="1329" y="968"/>
			<point x="1569" y="968" type="curve" smooth="yes"/>
			<point x="1803" y="968"/>
			<point x="1967" y="766"/>
			<point x="1943" y="532" type="curve"/>
		</contour>
	</outline>
</glyph>
<glyph name="acutecomb" format="2">
	<advance width="940"/>
	<unicode hex="0301"/>
	<outline>
		<contour>
			<point x="569" y="1138" type="line"/>
			<point x="590" y="1138" type="line"/>
			<point x="751" y="1426" type="line"/>
			<point x="690" y="1426" type="line"/>
		</contour>
	</outline>
</glyph>
<glyph name="uni0302" format="2">
	<advance width="1042"/>
	<unicode hex="0302"/>
	<outline>
		<contour>
			<point x="628" y="1400" type="line"/>
			<point x="493" y="1166" type="line"/>
			<point x="544" y="1166" type="line"/>
			<point x="640" y="1334" type="line"/>
			<point x="686" y="1166" type="line"/>
			<point x="735" y="1166" type="line"/>
			<point x="668" y="1400" type="line"/>
		</contour>
	</outline>
</glyph>
<glyph name="tildecomb" format="2">
	<advance width="1402"/>
	<unicode hex="0303"/>
	<outline>
		<contour>
			<point x="874" y="1314" type="curve" smooth="yes"/>
			<point x="970" y="1314"/>
			<point x="1051" y="1410"/>
			<point x="1036" y="1496" type="curve"/>
			<point x="978" y="1482" type="line"/>
			<point x="986" y="1450"/>
			<point x="941" y="1374"/>
			<point x="891" y="1374" type="curve" smooth="yes"/>
			<point x="807" y="1374"/>
			<point x="688" y="1520"/>
			<point x="584" y="1520" type="curve" smooth="yes"/>
			<point x="490" y="1520"/>
			<point x="408" y="1422"/>
			<point x="425" y="1340" type="curve"/>
			<point x="483" y="1352" type="line"/>
			<point x="477" y="1408"/>
			<point x="527" y="1460"/>
			<point x="576" y="1460" type="curve" smooth="yes"/>
			<point x="667" y="1460"/>
			<point x="774" y="1314"/>
		</contour>
	</outline>
</glyph>
<glyph name="uni0307" format="2">
	<advance width="890"/>
	<unicode hex="0307"/>
	<outline>
		<contour>
			<point x="552" y="1230" type="curve" smooth="yes"/>
			<point x="574" y="1230"/>
			<point x="595" y="1246"/>
			<point x="598" y="1271" type="curve" smooth="yes"/>
			<point x="602" y="1298"/>
			<point x="583" y="1318"/>
			<point x="558" y="1318" type="curve" smooth="yes"/>
			<point x="533" y="1318"/>
			<point x="513" y="1302"/>
			<point x="509" y="1277" type="curve" smooth="yes"/>
			<point x="505" y="1250"/>
			<point x="524" y="1230"/>
		</contour>
	</outline>
</glyph>
<glyph name="uni0308" format="2">
	<advance width="1146"/>
	<unicode hex="0308"/>
	<outline>
		<contour>
			<point x="554" y="1230" type="curve" smooth="yes"/>
			<point x="576" y="1230"/>
			<point x="599" y="1246"/>
			<point x="602" y="1271" type="curve" smooth="yes"/>
			<point x="606" y="1296"/>
			<point x="586" y="1320"/>
			<point x="560" y="1320" type="curve" smooth="yes"/>
			<point x="536" y="1320"/>
			<point x="512" y="1300"/>
			<point x="509" y="1277" type="curve" smooth="yes"/>
			<point x="505" y="1250"/>
			<point x="526" y="1230"/>
		</contour>
		<contour>
			<point x="806" y="1230" type="curve" smooth="yes"/>
			<point x="828" y="1230"/>
			<point x="851" y="1246"/>
			<point x="854" y="1271" type="curve" smooth="yes"/>
			<point x="858" y="1296"/>
			<point x="838" y="1320"/>
			<point x="812" y="1320" type="curve" smooth="yes"/>
			<point x="788" y="1320"/>
			<point x="764" y="1300"/>
			<point x="761" y="1277" type="curve" smooth="yes"/>
			<point x="757" y="1250"/>
			<point x="778" y="1230"/>
		</contour>
	</outline>
</glyph>
<glyph name="uni0327" format="2">
	<advance width="1174"/>
	<unicode hex="0327"/>
	<outline>
		<contour>
			<point x="287" y="-306" type="line"/>
			<point x="318" y="-306" type="line" smooth="yes"/>
			<point x="508" y="-306"/>
			<point x="682" y="-154"/>
			<point x="709" y="36" type="curve" smooth="yes"/>
			<point x="713" y="68" type="line"/>
			<point x="653" y="68" type="line"/>
			<point x="649" y="40" type="line" smooth="yes"/>
			<point x="627" y="-116"/>
			<point x="479" y="-246"/>
			<point x="323" y="-246" type="curve" smooth="yes"/>
			<point x="295" y="-246" type="line"/>
		</contour>
	</outline>
</glyph>
<glyph name="uni03BC" format="2">
	<advance width="998"/>
	<unicode hex="03BC"/>
	<outline>
		<contour>
			<point x="-51" y="-432" type="line"/>
			<point x="9" y="-432" type="line"/>
			<point x="100" y="209" type="line"/>
			<point x="153" y="71"/>
			<point x="270" y="-26"/>
			<point x="429" y="-26" type="curve" smooth="yes"/>
			<point x="576" y="-26"/>
			<point x="715" y="59"/>
			<point x="817" y="205" type="curve"/>
			<point x="788" y="0" type="line"/>
			<point x="848" y="0" type="line"/>
			<point x="988" y="1000" type="line"/>
			<point x="928" y="1000" type="line"/>
			<point x="851" y="454" type="line" smooth="yes"/>
			<point x="819" y="224"/>
			<point x="629" y="34"/>
			<point x="431" y="34" type="curve" smooth="yes"/>
			<point x="235" y="34"/>
			<point x="101" y="220"/>
			<point x="133" y="450" type="curve" smooth="yes"/>
			<point x="210" y="1000" type="line"/>
			<point x="150" y="1000" type="line"/>
		</contour>
	</outline>
</glyph>
<glyph name="endash" format="2">
	<advance width="1240"/>
	<unicode hex="2013"/>
	<outline>
		<contour>
			<point x="138" y="630" type="line"/>
			<point x="130" y="570" type="line"/>
			<point x="1130" y="570" type="line"/>
			<point x="1138" y="630" type="line"/>
		</contour>
	</outline>
</glyph>
<glyph name="emdash" format="2">
	<advance width="2040"/>
	<unicode hex="2014"/>
	<outline>
		<contour>
			<point x="138" y="630" type="line"/>
			<point x="130" y="570" type="line"/>
			<point x="1930" y="570" type="line"/>
			<point x="1938" y="630" type="line"/>
		</contour>
	</outline>
</glyph>
<glyph name="quoteleft" format="2">
	<advance width="222"/>
	<unicode hex="2018"/>
	<unicode hex="02BB"/>
	<outline>
		<contour>
			<point x="113" y="878" type="line"/>
			<point x="173" y="878" type="line"/>
			<point x="309" y="1400" type="line"/>
			<point x="268" y="1400" type="line"/>
		</contour>
	</outline>
</glyph>
<glyph name="dagger" format="2">
	<advance width="736"/>
	<unicode hex="2020"/>
	<outline>
		<contour>
			<point x="170" y="1140" type="line"/>
			<point x="428" y="1140" type="line"/>
			<point x="352" y="600" type="line"/>
			<point x="412" y="600" type="line"/>
			<point x="488" y="1140" type="line"/>
			<point x="746" y="1140" type="line"/>
			<point x="754" y="1200" type="line"/>
			<point x="496" y="1200" type="line"/>
			<point x="539" y="1500" type="line"/>
			<point x="479" y="1500" type="line"/>
			<point x="436" y="1200" type="line"/>
			<point x="178" y="1200" type="line"/>
		</contour>
	</outline>
</glyph>
<glyph name="perthousand" format="2">
	<advance width="1518"/>
	<unicode hex="2030"/>
	<outline>
		<contour>
			<point x="43" y="0" type="line"/>
			<point x="114" y="0" type="line"/>
			<point x="1119" y="1400" type="line"/>
			<point x="1048" y="1400" type="line"/>
		</contour>
		<contour>
			<point x="332" y="900" type="curve"/>
			<point x="436" y="900"/>
			<point x="532" y="984"/>
			<point x="547" y="1089" type="curve"/>
			<point x="562" y="1196"/>
			<point x="487" y="1286"/>
			<point x="379" y="1286" type="curve"/>
			<point x="275" y="1286"/>
			<point x="178" y="1200"/>
			<point x="164" y="1095" type="curve"/>
			<point x="149" y="988"/>
			<point x="224" y="900"/>
		</contour>
		<contour>
			<point x="333" y="960" type="curve"/>
			<point x="261" y="960"/>
			<point x="213" y="1018"/>
			<point x="223" y="1089" type="curve"/>
			<point x="233" y="1164"/>
			<point x="302" y="1226"/>
			<point x="377" y="1226" type="curve"/>
			<point x="450" y="1226"/>
			<point x="498" y="1168"/>
			<point x="488" y="1095" type="curve"/>
			<point x="477" y="1022"/>
			<point x="409" y="960"/>
		</contour>
		<contour>
			<point x="725" y="114" type="curve"/>
			<point x="829" y="114"/>
			<point x="926" y="200"/>
			<point x="941" y="305" type="curve"/>
			<point x="956" y="412"/>
			<point x="880" y="500"/>
			<point x="773" y="500" type="curve"/>
			<point x="668" y="500"/>
			<point x="570" y="416"/>
			<point x="555" y="311" type="curve"/>
			<point x="540" y="204"/>
			<point x="617" y="114"/>
		</contour>
		<contour>
			<point x="727" y="174" type="curve"/>
			<point x="655" y="174"/>
			<point x="604" y="232"/>
			<point x="615" y="305" type="curve"/>
			<point x="625" y="378"/>
			<point x="695" y="440"/>
			<point x="771" y="440" type="curve"/>
			<point x="841" y="440"/>
			<point x="891" y="382"/>
			<point x="881" y="311" type="curve"/>
			<point x="871" y="236"/>
			<point x="801" y="174"/>
		</contour>
		<contour>
			<point x="1195" y="114" type="curve"/>
			<point x="1299" y="114"/>
			<point x="1396" y="200"/>
			<point x="1411" y="305" type="curve"/>
			<point x="1426" y="412"/>
			<point x="1350" y="500"/>
			<point x="1243" y="500" type="curve"/>
			<point x="1138" y="500"/>
			<point x="1040" y="416"/>
			<point x="1025" y="311" type="curve"/>
			<point x="1010" y="204"/>
			<point x="1087" y="114"/>
		</contour>
		<contour>
			<point x="1197" y="174" type="curve"/>
			<point x="1125" y="174"/>
			<point x="1074" y="232"/>
			<point x="1085" y="305" type="curve"/>
			<point x="1095" y="378"/>
			<point x="1165" y="440"/>
			<point x="1241" y="440" type="curve"/>
			<point x="1311" y="440"/>
			<point x="1361" y="382"/>
			<point x="1351" y="311" type="curve"/>
			<point x="1341" y="236"/>
			<point x="1271" y="174"/>
		</contour>
	</outline>
</glyph>
<glyph name="uni2035" format="2">
	<advance width="362"/>
	<unicode hex="2035"/>
	<outline>
		<contour>
			<point x="255" y="878" type="line"/>
			<point x="295" y="878" type="line"/>
			<point x="306" y="1400" type="line"/>
			<point x="247" y="1400" type="line"/>
		</contour>
	</outline>
</glyph>
<glyph name="guilsinglleft" format="2">
	<advance width="600"/>
	<unicode hex="2039"/>
	<outline>
		<contour>
			<point x="387" y="261" type="line"/>
			<point x="466" y="261" type="line"/>
			<point x="214" y="601" type="line"/>
			<point x="562" y="939" type="line"/>
			<point x="481" y="939" type="line"/>
			<point x="134" y="601" type="line"/>
		</contour>
	</outline>
</glyph>
<glyph name="uni2070" format="2">
	<advance width="648"/>
	<unicode hex="2070"/>
	<outline>
		<contour>
			<point x="369" y="798" type="curve" smooth="yes"/>
			<point x="507" y="798"/>
			<point x="638" y="938"/>
			<point x="664" y="1129" type="curve" smooth="yes"/>
			<point x="692" y="1322"/>
			<point x="597" y="1468"/>
			<point x="457" y="1468" type="curve" smooth="yes"/>
			<point x="319" y="1468"/>
			<point x="188" y="1326"/>
			<point x="161" y="1135" type="curve" smooth="yes"/>
			<point x="134" y="942"/>
			<point x="229" y="798"/>
		</contour>
		<contour>
			<point x="373" y="870" type="curve" smooth="yes"/>
			<point x="268" y="870"/>
			<point x="214" y="996"/>
			<point x="232" y="1129" type="curve" smooth="yes"/>
			<point x="251" y="1260"/>
			<point x="342" y="1396"/>
			<point x="453" y="1396" type="curve" smooth="yes"/>
			<point x="558" y="1396"/>
			<point x="612" y="1271"/>
			<point x="593" y="1135" type="curve" smooth="yes"/>
			<point x="575" y="1007"/>
			<point x="484" y="870"/>
		</contour>
	</outline>
</glyph>
<glyph name="uni2074" format="2">
	<advance width="674"/>
	<unicode hex="2074"/>
	<outline>
		<contour>
			<point x="424" y="818" type="line"/>
			<point x="496" y="818" type="line"/>
			<point x="515" y="957" type="line"/>
			<point x="594" y="957" type="line"/>
			<point x="604" y="1029" type="line"/>
			<point x="525" y="1029" type="line"/>
			<point x="584" y="1449" type="line"/>
			<point x="486" y="1449" type="line"/>
			<point x="172" y="1043" type="line"/>
			<point x="160" y="957" type="line"/>
			<point x="443" y="957" type="line"/>
		</contour>
		<contour>
			<point x="248" y="1029" type="line"/>
			<point x="500" y="1353" type="line"/>
			<point x="453" y="1029" type="line"/>
		</contour>
	</outline>
</glyph>
<glyph name="uni2077" format="2">
	<advance width="612"/>
	<unicode hex="2077"/>
	<outline>
		<contour>
			<point x="180" y="818" type="line"/>
			<point x="265" y="818" type="line"/>
			<point x="664" y="1377" type="line"/>
			<point x="673" y="1449" type="line"/>
			<point x="253" y="1449" type="line"/>
			<point x="243" y="1377" type="line"/>
			<point x="579" y="1377" type="line"/>
		</contour>
	</outline>
</glyph>
<glyph name="uni2078" format="2">
	<advance width="593"/>
	<unicode hex="2078"/>
	<outline>
		<contour>
			<point x="340" y="798" type="curve" smooth="yes"/>
			<point x="450" y="798"/>
			<point x="549" y="873"/>
			<point x="565" y="983" type="curve" smooth="yes"/>
			<point x="575" y="1053"/>
			<point x="546" y="1114"/>
			<point x="499" y="1149" type="curve"/>
			<point x="548" y="1184"/>
			<point x="583" y="1236"/>
			<point x="591" y="1292" type="curve" smooth="yes"/>
			<point x="606" y="1396"/>
			<point x="532" y="1468"/>
			<point x="428" y="1468" type="curve" smooth="yes"/>
			<point x="328" y="1468"/>
			<point x="239" y="1400"/>
			<point x="225" y="1298" type="curve" smooth="yes"/>
			<point x="217" y="1240"/>
			<point x="240" y="1186"/>
			<point x="277" y="1153" type="curve"/>
			<point x="217" y="1116"/>
			<point x="174" y="1057"/>
			<point x="165" y="989" type="curve" smooth="yes"/>
			<point x="149" y="877"/>
			<point x="231" y="798"/>
		</contour>
		<contour>
			<point x="344" y="870" type="curve" smooth="yes"/>
			<point x="276" y="870"/>
			<point x="226" y="914"/>
			<point x="236" y="983" type="curve" smooth="yes"/>
			<point x="246" y="1053"/>
			<point x="314" y="1113"/>
			<point x="385" y="1113" type="curve" smooth="yes"/>
			<point x="455" y="1113"/>
			<point x="503" y="1057"/>
			<point x="494" y="989" type="curve" smooth="yes"/>
			<point x="484" y="918"/>
			<point x="417" y="870"/>
		</contour>
		<contour>
			<point x="388" y="1185" type="curve" smooth="yes"/>
			<point x="330" y="1185"/>
			<point x="288" y="1233"/>
			<point x="296" y="1292" type="curve" smooth="yes"/>
			<point x="305" y="1356"/>
			<point x="363" y="1396"/>
			<point x="424" y="1396" type="curve" smooth="yes"/>
			<point x="486" y="1396"/>
			<point x="529" y="1360"/>
			<point x="520" y="1298" type="curve" smooth="yes"/>
			<point x="512" y="1237"/>
			<point x="453" y="1185"/>
		</contour>
	</outline>
</glyph>
<glyph name="uni2079" format="2">
	<advance width="659"/>
	<unicode hex="2079"/>
	<outline>
		<contour>
			<point x="287" y="818" type="line"/>
			<point x="370" y="818" type="line"/>
			<point x="590" y="1120" type="line"/>
			<point x="590" y="1123"/>
			<point x="594" y="1125"/>
			<point x="597" y="1129" type="curve" smooth="yes"/>
			<point x="710" y="1285"/>
			<point x="617" y="1468"/>
			<point x="439" y="1468" type="curve" smooth="yes"/>
			<point x="361" y="1468"/>
			<point x="278" y="1440"/>
			<point x="224" y="1365" type="curve" smooth="yes"/>
			<point x="97" y="1188"/>
			<point x="230" y="971"/>
			<point x="436" y="1022" type="curve"/>
		</contour>
		<contour>
			<point x="385" y="1086" type="curve" smooth="yes"/>
			<point x="322" y="1086"/>
			<point x="259" y="1128"/>
			<point x="248" y="1203" type="curve" smooth="yes"/>
			<point x="239" y="1308"/>
			<point x="331" y="1396"/>
			<point x="435" y="1396" type="curve" smooth="yes"/>
			<point x="499" y="1396"/>
			<point x="562" y="1367"/>
			<point x="574" y="1291" type="curve" smooth="yes"/>
			<point x="582" y="1184"/>
			<point x="490" y="1086"/>
		</contour>
	</outline>
</glyph>
<glyph name="uni2080" format="2">
	<advance width="648"/>
	<unicode hex="2080"/>
	<outline>
		<contour>
			<point x="253" y="-31" type="curve"/>
			<point x="390" y="-31"/>
			<point x="521" y="107"/>
			<point x="548" y="298" type="curve"/>
			<point x="575" y="491"/>
			<point x="480" y="636"/>
			<point x="340" y="636" type="curve"/>
			<point x="202" y="636"/>
			<point x="71" y="495"/>
			<point x="45" y="304" type="curve"/>
			<point x="17" y="111"/>
			<point x="112" y="-31"/>
		</contour>
		<contour>
			<point x="256" y="41" type="curve"/>
			<point x="152" y="41"/>
			<point x="97" y="165"/>
			<point x="116" y="298" type="curve"/>
			<point x="134" y="429"/>
			<point x="225" y="564"/>
			<point x="336" y="564" type="curve"/>
			<point x="441" y="564"/>
			<point x="496" y="440"/>
			<point x="477" y="304" type="curve"/>
			<point x="458" y="176"/>
			<point x="368" y="41"/>
		</contour>
	</outline>
</glyph>
<glyph name="uni2082" format="2">
	<advance width="670"/>
	<unicode hex="2082"/>
	<outline>
		<contour>
			<point x="26" y="0" type="line"/>
			<point x="456" y="0" type="line"/>
			<point x="466" y="72" type="line"/>
			<point x="159" y="71" type="line"/>
			<point x="294" y="155"/>
			<point x="501" y="324"/>
			<point x="518" y="443" type="curve" smooth="yes"/>
			<point x="535" y="562"/>
			<point x="449" y="650"/>
			<point x="330" y="650" type="curve" smooth="yes"/>
			<point x="211" y="650"/>
			<point x="105" y="566"/>
			<point x="89" y="448" type="curve"/>
			<point x="160" y="444" type="line"/>
			<point x="171" y="524"/>
			<point x="246" y="578"/>
			<point x="326" y="578" type="curve" smooth="yes"/>
			<point x="404" y="578"/>
			<point x="458" y="528"/>
			<point x="447" y="449" type="curve" smooth="yes"/>
			<point x="430" y="333"/>
			<point x="142" y="140"/>
			<point x="35" y="75" type="curve"/>
		</contour>
	</outline>
</glyph>
<glyph name="uni2083" format="2">
	<advance width="540"/>
	<unicode hex="2083"/>
	<outline>
		<contour>
			<point x="200" y="-31" type="curve" smooth="yes"/>
			<point x="306" y="-31"/>
			<point x="404" y="44"/>
			<point x="419" y="153" type="curve" smooth="yes"/>
			<point x="431" y="236"/>
			<point x="404" y="275"/>
			<point x="352" y="320" type="curve"/>
			<point x="394" y="340"/>
			<point x="435" y="401"/>
			<point x="444" y="463" type="curve" smooth="yes"/>
			<point x="458" y="564"/>
			<point x="384" y="636"/>
			<point x="282" y="636" type="curve" smooth="yes"/>
			<point x="183" y="636"/>
			<point x="94" y="568"/>
			<point x="79" y="468" type="curve"/>
			<point x="151" y="464" type="line"/>
			<point x="159" y="524"/>
			<point x="217" y="564"/>
			<point x="278" y="564" type="curve" smooth="yes"/>
			<point x="337" y="564"/>
			<point x="381" y="528"/>
			<point x="373" y="469" type="curve" smooth="yes"/>
			<point x="362" y="396"/>
			<point x="302" y="355"/>
			<point x="211" y="355" type="curve"/>
			<point x="204" y="283" type="line"/>
			<point x="307" y="283"/>
			<point x="359" y="237"/>
			<point x="348" y="159" type="curve" smooth="yes"/>
			<point x="338" y="88"/>
			<point x="275" y="41"/>
			<point x="203" y="41" type="curve" smooth="yes"/>
			<point x="133" y="41"/>
			<point x="86" y="84"/>
			<point x="95" y="154" type="curve"/>
			<point x="24" y="158" type="line"/>
			<point x="8" y="48"/>
			<point x="88" y="-31"/>
		</contour>
	</outline>
</glyph>
<glyph name="uni2084" format="2">
	<advance width="674"/>
	<unicode hex="2084"/>
	<outline>
		<contour>
			<point x="309" y="0" type="line"/>
			<point x="381" y="0" type="line"/>
			<point x="400" y="139" type="line"/>
			<point x="479" y="139" type="line"/>
			<point x="489" y="211" type="line"/>
			<point x="410" y="211" type="line"/>
			<point x="469" y="631" type="line"/>
			<point x="371" y="631" type="line"/>
			<point x="57" y="226" type="line"/>
			<point x="45" y="139" type="line"/>
			<point x="328" y="139" type="line"/>
		</contour>
		<contour>
			<point x="133" y="211" type="line"/>
			<point x="385" y="535" type="line"/>
			<point x="338" y="211" type="line"/>
		</contour>
	</outline>
</glyph>
<glyph name="uni2085" format="2">
	<advance width="670"/>
	<unicode hex="2085"/>
	<outline>
		<contour>
			<point x="234" y="-31" type="curve"/>
			<point x="354" y="-31"/>
			<point x="463" y="53"/>
			<point x="480" y="175" type="curve"/>
			<point x="497" y="296"/>
			<point x="411" y="396"/>
			<point x="289" y="396" type="curve"/>
			<point x="194" y="389" type="line"/>
			<point x="227" y="545" type="line"/>
			<point x="510" y="545" type="line"/>
			<point x="520" y="617" type="line"/>
			<point x="172" y="617" type="line"/>
			<point x="97" y="290" type="line"/>
			<point x="282" y="324" type="line"/>
			<point x="363" y="324"/>
			<point x="420" y="261"/>
			<point x="409" y="181" type="curve"/>
			<point x="397" y="98"/>
			<point x="320" y="41"/>
			<point x="237" y="41" type="curve"/>
			<point x="157" y="41"/>
			<point x="99" y="94"/>
			<point x="111" y="176" type="curve" smooth="yes"/>
			<point x="39" y="180" type="line" smooth="yes"/>
			<point x="22" y="57"/>
			<point x="109" y="-31"/>
		</contour>
	</outline>
</glyph>
<glyph name="uni2087" format="2">
	<advance width="612"/>
	<unicode hex="2087"/>
	<outline>
		<contour>
			<point x="63" y="0" type="line"/>
			<point x="148" y="0" type="line"/>
			<point x="549" y="559" type="line"/>
			<point x="558" y="631" type="line"/>
			<point x="138" y="631" type="line"/>
			<point x="128" y="559" type="line"/>
			<point x="464" y="559" type="line"/>
		</contour>
	</outline>
</glyph>
<glyph name="uni2088" format="2">
	<advance width="593"/>
	<unicode hex="2088"/>
	<outline>
		<contour>
			<point x="224" y="-31" type="curve" smooth="yes"/>
			<point x="333" y="-31"/>
			<point x="433" y="44"/>
			<point x="448" y="153" type="curve" smooth="yes"/>
			<point x="458" y="224"/>
			<point x="429" y="285"/>
			<point x="383" y="320" type="curve"/>
			<point x="432" y="354"/>
			<point x="467" y="406"/>
			<point x="475" y="463" type="curve" smooth="yes"/>
			<point x="489" y="567"/>
			<point x="416" y="638"/>
			<point x="311" y="638" type="curve" smooth="yes"/>
			<point x="212" y="638"/>
			<point x="123" y="571"/>
			<point x="109" y="469" type="curve" smooth="yes"/>
			<point x="100" y="410"/>
			<point x="123" y="356"/>
			<point x="160" y="324" type="curve"/>
			<point x="101" y="287"/>
			<point x="58" y="228"/>
			<point x="48" y="159" type="curve" smooth="yes"/>
			<point x="32" y="48"/>
			<point x="114" y="-31"/>
		</contour>
		<contour>
			<point x="227" y="41" type="curve" smooth="yes"/>
			<point x="160" y="41"/>
			<point x="110" y="84"/>
			<point x="119" y="153" type="curve" smooth="yes"/>
			<point x="129" y="224"/>
			<point x="197" y="283"/>
			<point x="268" y="283" type="curve" smooth="yes"/>
			<point x="338" y="283"/>
			<point x="387" y="228"/>
			<point x="377" y="159" type="curve" smooth="yes"/>
			<point x="367" y="88"/>
			<point x="301" y="41"/>
		</contour>
		<contour>
			<point x="271" y="355" type="curve" smooth="yes"/>
			<point x="213" y="355"/>
			<point x="172" y="404"/>
			<point x="180" y="463" type="curve" smooth="yes"/>
			<point x="189" y="526"/>
			<point x="246" y="566"/>
			<point x="308" y="566" type="curve" smooth="yes"/>
			<point x="369" y="566"/>
			<point x="412" y="530"/>
			<point x="404" y="469" type="curve" smooth="yes"/>
			<point x="395" y="408"/>
			<point x="336" y="355"/>
		</contour>
	</outline>
</glyph>
<glyph name="uni2089" format="2">
	<advance width="660"/>
	<unicode hex="2089"/>
	<outline>
		<contour>
			<point x="172" y="0" type="line"/>
			<point x="255" y="0" type="line"/>
			<point x="482" y="313" type="line"/>
			<point x="595" y="467"/>
			<point x="502" y="650"/>
			<point x="324" y="650" type="curve" smooth="yes"/>
			<point x="246" y="650"/>
			<point x="164" y="623"/>
			<point x="109" y="548" type="curve" smooth="yes"/>
			<point x="-18" y="371"/>
			<point x="115" y="154"/>
			<point x="321" y="204" type="curve"/>
		</contour>
		<contour>
			<point x="270" y="269" type="curve" smooth="yes"/>
			<point x="207" y="269"/>
			<point x="144" y="310"/>
			<point x="133" y="386" type="curve" smooth="yes"/>
			<point x="124" y="490"/>
			<point x="216" y="578"/>
			<point x="320" y="578" type="curve" smooth="yes"/>
			<point x="384" y="578"/>
			<point x="447" y="549"/>
			<point x="459" y="473" type="curve" smooth="yes"/>
			<point x="468" y="367"/>
			<point x="375" y="269"/>
		</contour>
	</outline>
</glyph>
<glyph name="arrowboth" format="2">
	<advance width="1562"/>
	<unicode hex="2194"/>
	<outline>
		<contour>
			<point x="517" y="284" type="line"/>
			<point x="564" y="326" type="line"/>
			<point x="224" y="720" type="line"/>
			<point x="1396" y="720" type="line"/>
			<point x="948" y="326" type="line"/>
			<point x="985" y="284" type="line"/>
			<point x="1517" y="750" type="line"/>
			<point x="1113" y="1216" type="line"/>
			<point x="1067" y="1174" type="line"/>
			<point x="1406" y="780" type="line"/>
			<point x="234" y="780" type="line"/>
			<point x="683" y="1174" type="line"/>
			<point x="645" y="1216" type="line"/>
			<point x="115" y="750" type="line"/>
		</contour>
	</outline>
</glyph>
<glyph name="partialdiff" format="2">
	<advance width="1164"/>
	<unicode hex="2202"/>
	<outline>
		<contour>
			<point x="511" y="-26" type="curve"/>
			<point x="810" y="-26"/>
			<point x="1041" y="196"/>
			<point x="1087" y="519" type="curve"/>
			<point x="1157" y="1050"/>
			<point x="896" y="1478"/>
			<point x="496" y="1478" type="curve"/>
			<point x="491" y="1418" type="line"/>
			<point x="823" y="1418"/>
			<point x="1024" y="1096"/>
			<point x="1039" y="750" type="curve"/>
			<point x="967" y="887"/>
			<point x="826" y="978"/>
			<point x="646" y="978" type="curve"/>
			<point x="372" y="978"/>
			<point x="116" y="756"/>
			<point x="77" y="479" type="curve"/>
			<point x="38" y="200"/>
			<point x="234" y="-26"/>
		</contour>
		<contour>
			<point x="513" y="34" type="curve"/>
			<point x="269" y="34"/>
			<point x="103" y="234"/>
			<point x="136" y="473" type="curve"/>
			<point x="170" y="712"/>
			<point x="392" y="918"/>
			<point x="644" y="918" type="curve"/>
			<point x="890" y="918"/>
			<point x="1057" y="720"/>
			<point x="1023" y="479" type="curve"/>
			<point x="990" y="242"/>
			<point x="767" y="34"/>
		</contour>
	</outline>
</glyph>
<glyph name="emptyset" format="2">
	<advance width="1160"/>
	<unicode hex="2205"/>
	<outline>
		<contour>
			<point x="227" y="-40" type="line"/>
			<point x="283" y="37" type="line"/>
			<point x="347" y="-1"/>
			<point x="424" y="-26"/>
			<point x="509" y="-26" type="curve" smooth="yes"/>
			<point x="784" y="-26"/>
			<point x="1039" y="208"/>
			<point x="1080" y="497" type="curve" smooth="yes"/>
			<point x="1105" y="680"/>
			<point x="1042" y="839"/>
			<point x="926" y="935" type="curve"/>
			<point x="985" y="1014" type="line"/>
			<point x="935" y="1044" type="line"/>
			<point x="878" y="967" type="line"/>
			<point x="816" y="1005"/>
			<point x="739" y="1028"/>
			<point x="651" y="1028" type="curve" smooth="yes"/>
			<point x="377" y="1028"/>
			<point x="121" y="794"/>
			<point x="80" y="503" type="curve" smooth="yes"/>
			<point x="55" y="324"/>
			<point x="120" y="165"/>
			<point x="237" y="69" type="curve"/>
			<point x="178" y="-10" type="line"/>
		</contour>
		<contour>
			<point x="271" y="121" type="line"/>
			<point x="171" y="205"/>
			<point x="118" y="342"/>
			<point x="140" y="497" type="curve" smooth="yes"/>
			<point x="188" y="844"/>
			<point x="575" y="1081"/>
			<point x="844" y="917" type="curve"/>
		</contour>
		<contour>
			<point x="317" y="87" type="curve"/>
			<point x="892" y="883" type="line"/>
			<point x="991" y="797"/>
			<point x="1042" y="658"/>
			<point x="1020" y="503" type="curve" smooth="yes"/>
			<point x="973" y="164"/>
			<point x="597" y="-81"/>
		</contour>
	</outline>
</glyph>
<glyph name="product" format="2">
	<advance width="1280"/>
	<unicode hex="220F"/>
	<outline>
		<contour>
			<point x="206" y="1400" type="line"/>
			<point x="198" y="1340" type="line"/>
			<point x="1318" y="1340" type="line"/>
			<point x="1326" y="1400" type="line"/>
		</contour>
		<contour>
			<point x="431" y="1364" type="line"/>
			<point x="240" y="0" type="line"/>
			<point x="300" y="0" type="line"/>
			<point x="491" y="1364" type="line"/>
		</contour>
		<contour>
			<point x="1031" y="1364" type="line"/>
			<point x="840" y="0" type="line"/>
			<point x="900" y="0" type="line"/>
			<point x="1091" y="1364" type="line"/>
		</contour>
	</outline>
</glyph>
<glyph name="summation" format="2">
	<advance width="980"/>
	<unicode hex="2211"/>
	<outline>
		<contour>
			<point x="10" y="0" type="line"/>
			<point x="850" y="0" type="line"/>
			<point x="858" y="60" type="line"/>
			<point x="87" y="60" type="line"/>
			<point x="502" y="698" type="line"/>
			<point x="265" y="1336" type="line"/>
			<point x="1037" y="1336" type="line"/>
			<point x="1046" y="1396" type="line"/>
			<point x="206" y="1396" type="line"/>
			<point x="198" y="1336" type="line"/>
			<point x="434" y="698" type="line"/>
			<point x="18" y="60" type="line"/>
		</contour>
	</outline>
</glyph>
<glyph name="infinity" format="2">
	<advance width="1434"/>
	<unicode hex="221E"/>
	<outline>
		<contour>
			<point x="327" y="340" type="curve"/>
			<point x="491" y="340"/>
			<point x="563" y="411"/>
			<point x="732" y="586" type="curve"/>
			<point x="855" y="403"/>
			<point x="907" y="340"/>
			<point x="1071" y="340" type="curve"/>
			<point x="1222" y="358"/>
			<point x="1351" y="480"/>
			<point x="1372" y="629" type="curve" smooth="yes"/>
			<point x="1394" y="786"/>
			<point x="1304" y="910"/>
			<point x="1118" y="924" type="curve"/>
			<point x="984" y="924"/>
			<point x="895" y="841"/>
			<point x="741" y="678" type="curve"/>
			<point x="626" y="847"/>
			<point x="572" y="924"/>
			<point x="402" y="924" type="curve"/>
			<point x="250" y="910"/>
			<point x="120" y="784"/>
			<point x="99" y="635" type="curve" smooth="yes"/>
			<point x="79" y="490"/>
			<point x="170" y="360"/>
		</contour>
		<contour>
			<point x="333" y="400" type="curve"/>
			<point x="222" y="414"/>
			<point x="141" y="504"/>
			<point x="158" y="629" type="curve" smooth="yes"/>
			<point x="175" y="750"/>
			<point x="281" y="850"/>
			<point x="404" y="864" type="curve"/>
			<point x="545" y="864"/>
			<point x="570" y="817"/>
			<point x="697" y="635" type="curve"/>
			<point x="523" y="455"/>
			<point x="478" y="400"/>
		</contour>
		<contour>
			<point x="1067" y="400" type="curve"/>
			<point x="938" y="400"/>
			<point x="917" y="427"/>
			<point x="774" y="629" type="curve"/>
			<point x="941" y="799"/>
			<point x="995" y="864"/>
			<point x="1117" y="864" type="curve"/>
			<point x="1259" y="850"/>
			<point x="1330" y="758"/>
			<point x="1313" y="635" type="curve" smooth="yes"/>
			<point x="1296" y="514"/>
			<point x="1188" y="414"/>
		</contour>
	</outline>
</glyph>
<glyph name="uniFFFD" format="2">
	<advance width="1630"/>
	<unicode hex="FFFD"/>
	<outline>
		<contour>
			<point x="745" y="-26" type="curve" smooth="yes"/>
			<point x="816" y="-26"/>
			<point x="891" y="1"/>
			<point x="953" y="55" type="curve" smooth="yes"/>
			<point x="1425" y="469" type="line" smooth="yes"/>
			<point x="1489" y="525"/>
			<point x="1524" y="596"/>
			<point x="1533" y="667" type="curve" smooth="yes"/>
			<point x="1544" y="740"/>
			<point x="1526" y="811"/>
			<point x="1478" y="867" type="curve" smooth="yes"/>
			<point x="1122" y="1281" type="line" smooth="yes"/>
			<point x="1074" y="1337"/>
			<point x="1008" y="1364"/>
			<point x="934" y="1364" type="curve" smooth="yes"/>
			<point x="864" y="1364"/>
			<point x="789" y="1339"/>
			<point x="725" y="1283" type="curve" smooth="yes"/>
			<point x="252" y="869" type="line" smooth="yes"/>
			<point x="191" y="815"/>
			<point x="154" y="744"/>
			<point x="144" y="673" type="curve" smooth="yes"/>
			<point x="134" y="600"/>
			<point x="151" y="527"/>
			<point x="199" y="471" type="curve" smooth="yes"/>
			<point x="556" y="57" type="line" smooth="yes"/>
			<point x="603" y="1"/>
			<point x="672" y="-26"/>
		</contour>
		<contour>
			<point x="800" y="350" type="curve" smooth="yes"/>
			<point x="785" y="350"/>
			<point x="775" y="362"/>
			<point x="777" y="377" type="curve" smooth="yes"/>
			<point x="779" y="394"/>
			<point x="797" y="410"/>
			<point x="815" y="410" type="curve" smooth="yes"/>
			<point x="831" y="410"/>
			<point x="840" y="398"/>
			<point x="838" y="383" type="curve" smooth="yes"/>
			<point x="835" y="366"/>
			<point x="819" y="350"/>
		</contour>
		<contour>
			<point x="795" y="520" type="line"/>
			<point x="795" y="520" type="line" smooth="yes"/>
			<point x="804" y="582"/>
			<point x="849" y="641"/>
			<point x="911" y="670" type="curve" smooth="yes"/>
			<point x="955" y="693"/>
			<point x="988" y="740"/>
			<point x="995" y="793" type="curve" smooth="yes"/>
			<point x="1006" y="870"/>
			<point x="951" y="932"/>
			<point x="873" y="932" type="curve" smooth="yes"/>
			<point x="799" y="932"/>
			<point x="731" y="874"/>
			<point x="720" y="798" type="curve"/>
			<point x="659" y="794" type="line"/>
			<point x="675" y="902"/>
			<point x="777" y="992"/>
			<point x="888" y="992" type="curve" smooth="yes"/>
			<point x="995" y="992"/>
			<point x="1071" y="906"/>
			<point x="1056" y="799" type="curve" smooth="yes"/>
			<point x="1045" y="722"/>
			<point x="994" y="655"/>
			<point x="926" y="622" type="curve" smooth="yes"/>
			<point x="889" y="601"/>
			<point x="861" y="564"/>
			<point x="855" y="524" type="curve" smooth="yes"/>
			<point x="855" y="520" type="line"/>
		</contour>
	</outline>
</glyph>
